G04 #@! TF.FileFunction,Paste,Top*
%FSLAX46Y46*%
G04 Gerber Fmt 4.6, Leading zero omitted, Abs format (unit mm)*
G04 Created by KiCad (PCBNEW 4.0.6) date 08/10/17 10:11:21*
%MOMM*%
%LPD*%
G01*
G04 APERTURE LIST*
%ADD10C,0.100000*%
%ADD11R,1.800000X0.600000*%
%ADD12R,0.599440X0.398780*%
%ADD13R,0.398780X0.599440*%
%ADD14R,1.500000X0.900000*%
%ADD15R,1.000000X3.500000*%
%ADD16R,1.500000X3.400000*%
%ADD17R,1.000000X1.200000*%
%ADD18R,1.998980X1.600200*%
G04 APERTURE END LIST*
D10*
D11*
X149550000Y-93155000D03*
X149550000Y-91885000D03*
X149550000Y-90615000D03*
X149550000Y-89345000D03*
X141950000Y-89345000D03*
X141950000Y-90615000D03*
X141950000Y-91885000D03*
X141950000Y-93155000D03*
D12*
X140000000Y-76199580D03*
X140000000Y-75300420D03*
X135500000Y-77449580D03*
X135500000Y-76550420D03*
D13*
X153300420Y-76500000D03*
X154199580Y-76500000D03*
D14*
X132750000Y-83150000D03*
X138250000Y-83150000D03*
X138250000Y-79850000D03*
X132750000Y-79850000D03*
X143250000Y-79400000D03*
X148750000Y-79400000D03*
X148750000Y-76100000D03*
X143250000Y-76100000D03*
X153250000Y-83150000D03*
X158750000Y-83150000D03*
X158750000Y-79850000D03*
X153250000Y-79850000D03*
D15*
X144750000Y-96875000D03*
X146750000Y-96875000D03*
D16*
X142400000Y-102625000D03*
X149100000Y-102625000D03*
D17*
X137000000Y-95100000D03*
X134500000Y-95100000D03*
X132000000Y-95100000D03*
X137000000Y-89400000D03*
X134500000Y-89400000D03*
X132000000Y-89400000D03*
D18*
X154500260Y-91750000D03*
X160499740Y-91750000D03*
D12*
X139750000Y-94550420D03*
X139750000Y-95449580D03*
M02*
