G04 #@! TF.FileFunction,Legend,Bot*
%FSLAX46Y46*%
G04 Gerber Fmt 4.6, Leading zero omitted, Abs format (unit mm)*
G04 Created by KiCad (PCBNEW 4.0.6) date 08/10/17 10:11:21*
%MOMM*%
%LPD*%
G01*
G04 APERTURE LIST*
%ADD10C,0.100000*%
%ADD11C,0.200000*%
%ADD12C,0.248920*%
%ADD13C,0.110000*%
G04 APERTURE END LIST*
D10*
D11*
X159701355Y-80176905D02*
X159297294Y-79772843D01*
X158792218Y-80681981D02*
X159499325Y-79974874D01*
X158354485Y-80244248D02*
X158825890Y-79772843D01*
X159061592Y-79537141D02*
X159061592Y-79604485D01*
X158994248Y-79604485D01*
X158994248Y-79537141D01*
X159061592Y-79537141D01*
X158994248Y-79604485D01*
X158489172Y-79436126D02*
X158017768Y-79907531D01*
X158421829Y-79503470D02*
X158421829Y-79436126D01*
X158388157Y-79335111D01*
X158287141Y-79234095D01*
X158186126Y-79200424D01*
X158085111Y-79234095D01*
X157714721Y-79604485D01*
X157916753Y-78863706D02*
X157276989Y-79166753D01*
X157580035Y-78526988D02*
X157276989Y-79166753D01*
X157175974Y-79402455D01*
X157175974Y-79469798D01*
X157209646Y-79570813D01*
X157344332Y-77819882D02*
X156839255Y-78324958D01*
X156771913Y-78459646D01*
X156771913Y-78594333D01*
X156839256Y-78729019D01*
X156906600Y-78796363D01*
X156064805Y-77887225D02*
X156098477Y-77988240D01*
X156233164Y-78122928D01*
X156334180Y-78156600D01*
X156435195Y-78122928D01*
X156704569Y-77853553D01*
X156738241Y-77752538D01*
X156704569Y-77651523D01*
X156569882Y-77516836D01*
X156468867Y-77483164D01*
X156367851Y-77516836D01*
X156300507Y-77584180D01*
X156569882Y-77988241D01*
X156233164Y-77180118D02*
X155627073Y-77516836D01*
X155829103Y-77045431D01*
X155357698Y-77247462D01*
X155694416Y-76641370D01*
X154717935Y-76540355D02*
X154751607Y-76641370D01*
X154886294Y-76776058D01*
X154987310Y-76809729D01*
X155088325Y-76776058D01*
X155357699Y-76506683D01*
X155391371Y-76405668D01*
X155357699Y-76304653D01*
X155223012Y-76169965D01*
X155121996Y-76136294D01*
X155020981Y-76169965D01*
X154953637Y-76237310D01*
X155223012Y-76641371D01*
X154246531Y-76136294D02*
X154347546Y-76169966D01*
X154448561Y-76136294D01*
X155054653Y-75530203D01*
X154280203Y-75361843D02*
X154381218Y-75395515D01*
X154448561Y-75395515D01*
X154549576Y-75361843D01*
X154583248Y-75328172D01*
X154616920Y-75227157D01*
X154616920Y-75159813D01*
X154583248Y-75058798D01*
X154448561Y-74924110D01*
X154347545Y-74890439D01*
X154280202Y-74890439D01*
X154179187Y-74924110D01*
X154145515Y-74957782D01*
X154111843Y-75058797D01*
X154111843Y-75126141D01*
X154145515Y-75227156D01*
X154280203Y-75361843D01*
X154313874Y-75462859D01*
X154313874Y-75530202D01*
X154280202Y-75631218D01*
X154145515Y-75765905D01*
X154044500Y-75799576D01*
X153977157Y-75799576D01*
X153876141Y-75765905D01*
X153741454Y-75631217D01*
X153707782Y-75530202D01*
X153707782Y-75462859D01*
X153741454Y-75361843D01*
X153876141Y-75227157D01*
X153977157Y-75193484D01*
X154044500Y-75193484D01*
X154145515Y-75227156D01*
X153674110Y-74149660D02*
X154010828Y-74486378D01*
X153707783Y-74856767D01*
X153707783Y-74789424D01*
X153674111Y-74688408D01*
X153505752Y-74520049D01*
X153404737Y-74486377D01*
X153337393Y-74486377D01*
X153236377Y-74520050D01*
X153068019Y-74688408D01*
X153034347Y-74789424D01*
X153034347Y-74856767D01*
X153068019Y-74957782D01*
X153236378Y-75126141D01*
X153337393Y-75159813D01*
X153404737Y-75159813D01*
X140596195Y-73639508D02*
X140259477Y-73976226D01*
X140865569Y-73774195D02*
X139922760Y-73302790D01*
X140394164Y-74245600D01*
X139687057Y-74009897D02*
X140158462Y-74481302D01*
X139754400Y-74077240D02*
X139687057Y-74077240D01*
X139586042Y-74110912D01*
X139485026Y-74211928D01*
X139451354Y-74312943D01*
X139485026Y-74413958D01*
X139855416Y-74784348D01*
X139215652Y-75424111D02*
X138508545Y-74717004D01*
X139181981Y-75390439D02*
X139282996Y-75356768D01*
X139417683Y-75222080D01*
X139451355Y-75121065D01*
X139451355Y-75053722D01*
X139417683Y-74952706D01*
X139215652Y-74750675D01*
X139114637Y-74717004D01*
X139047294Y-74717004D01*
X138946278Y-74750675D01*
X138811591Y-74885363D01*
X138777919Y-74986378D01*
X138575889Y-75996531D02*
X138676904Y-75962859D01*
X138811592Y-75828172D01*
X138845263Y-75727157D01*
X138811592Y-75626141D01*
X138542217Y-75356767D01*
X138441202Y-75323095D01*
X138340187Y-75356767D01*
X138205499Y-75491455D01*
X138171828Y-75592470D01*
X138205499Y-75693485D01*
X138272843Y-75760829D01*
X138676905Y-75491455D01*
X138272843Y-76366920D02*
X137801439Y-75895515D01*
X137936126Y-76030202D02*
X137835110Y-75996530D01*
X137767767Y-75996530D01*
X137666752Y-76030202D01*
X137599408Y-76097546D01*
X137835110Y-76737310D02*
X137801439Y-76838325D01*
X137666752Y-76973012D01*
X137565736Y-77006684D01*
X137464721Y-76973012D01*
X137431049Y-76939341D01*
X137397377Y-76838325D01*
X137431050Y-76737310D01*
X137532065Y-76636294D01*
X137565737Y-76535279D01*
X137532064Y-76434263D01*
X137498393Y-76400592D01*
X137397377Y-76366920D01*
X137296362Y-76400592D01*
X137195347Y-76501607D01*
X137161675Y-76602623D01*
X137161675Y-77478088D02*
X137195347Y-77377073D01*
X137195347Y-77309729D01*
X137161675Y-77208714D01*
X136959644Y-77006683D01*
X136858629Y-76973012D01*
X136791286Y-76973012D01*
X136690271Y-77006683D01*
X136589255Y-77107699D01*
X136555583Y-77208714D01*
X136555583Y-77276058D01*
X136589255Y-77377073D01*
X136791286Y-77579104D01*
X136892301Y-77612776D01*
X136959644Y-77612776D01*
X137060659Y-77579104D01*
X137161675Y-77478088D01*
X136151522Y-77545431D02*
X136622927Y-78016836D01*
X136218866Y-77612775D02*
X136151522Y-77612775D01*
X136050507Y-77646447D01*
X135949491Y-77747462D01*
X135915820Y-77848478D01*
X135949491Y-77949493D01*
X136319881Y-78319882D01*
X134973011Y-78252539D02*
X135107698Y-78117851D01*
X135208714Y-78084180D01*
X135276057Y-78084180D01*
X135444416Y-78117851D01*
X135612774Y-78218867D01*
X135882149Y-78488241D01*
X135915820Y-78589256D01*
X135915820Y-78656600D01*
X135882149Y-78757615D01*
X135747461Y-78892302D01*
X135646446Y-78925974D01*
X135579102Y-78925974D01*
X135478087Y-78892302D01*
X135309729Y-78723944D01*
X135276056Y-78622928D01*
X135276056Y-78555584D01*
X135309728Y-78454569D01*
X135444416Y-78319882D01*
X135545431Y-78286210D01*
X135612774Y-78286210D01*
X135713790Y-78319882D01*
X135276057Y-79363706D02*
X135141370Y-79498393D01*
X135040354Y-79532066D01*
X134973011Y-79532066D01*
X134804652Y-79498394D01*
X134636294Y-79397379D01*
X134366919Y-79128004D01*
X134333247Y-79026989D01*
X134333247Y-78959646D01*
X134366919Y-78858631D01*
X134501607Y-78723943D01*
X134602622Y-78690271D01*
X134669965Y-78690271D01*
X134770981Y-78723943D01*
X134939339Y-78892302D01*
X134973011Y-78993317D01*
X134973012Y-79060661D01*
X134939340Y-79161676D01*
X134804652Y-79296364D01*
X134703637Y-79330035D01*
X134636293Y-79330035D01*
X134535278Y-79296363D01*
X134636294Y-79936126D02*
X134602622Y-80037141D01*
X134467935Y-80171828D01*
X134366919Y-80205501D01*
X134265904Y-80171829D01*
X134232232Y-80138157D01*
X134198561Y-80037142D01*
X134232233Y-79936126D01*
X134333248Y-79835111D01*
X134366920Y-79734096D01*
X134333247Y-79633080D01*
X134299576Y-79599408D01*
X134198561Y-79565737D01*
X134097545Y-79599408D01*
X133996530Y-79700424D01*
X133962858Y-79801439D01*
X133996530Y-80508546D02*
X133996530Y-80575890D01*
X134063874Y-80575890D01*
X134063874Y-80508546D01*
X133996530Y-80508546D01*
X134063874Y-80575890D01*
X133390439Y-81181981D02*
X133491454Y-81148310D01*
X133626141Y-81013622D01*
X133659813Y-80912607D01*
X133659813Y-80845263D01*
X133626141Y-80744248D01*
X133424110Y-80542217D01*
X133323095Y-80508545D01*
X133255752Y-80508545D01*
X133154737Y-80542217D01*
X133020049Y-80676905D01*
X132986377Y-80777920D01*
X133020050Y-81619714D02*
X133053722Y-81518698D01*
X133053722Y-81451355D01*
X133020050Y-81350340D01*
X132818019Y-81148309D01*
X132717004Y-81114637D01*
X132649660Y-81114637D01*
X132548645Y-81148309D01*
X132447629Y-81249325D01*
X132413957Y-81350340D01*
X132413957Y-81417683D01*
X132447629Y-81518698D01*
X132649660Y-81720729D01*
X132750675Y-81754401D01*
X132818019Y-81754401D01*
X132919034Y-81720729D01*
X133020050Y-81619714D01*
X132481302Y-82158462D02*
X132009897Y-81687057D01*
X132077240Y-81754400D02*
X132009897Y-81754400D01*
X131908882Y-81788072D01*
X131807866Y-81889088D01*
X131774194Y-81990103D01*
X131807866Y-82091118D01*
X132178255Y-82461508D01*
X131807866Y-82091118D02*
X131706851Y-82057447D01*
X131605836Y-82091118D01*
X131504820Y-82192133D01*
X131471149Y-82293149D01*
X131504820Y-82394164D01*
X131875210Y-82764553D01*
D12*
X135459000Y-84751400D02*
X135459000Y-81932000D01*
X135459000Y-81932000D02*
X140996200Y-76420200D01*
X151003800Y-76420200D02*
X156541000Y-81932000D01*
X156541000Y-81932000D02*
X156541000Y-84751400D01*
X140996200Y-76420200D02*
X151003800Y-76420200D01*
X151530600Y-96054400D02*
X155321800Y-96054400D01*
X136703600Y-96079800D02*
X140494800Y-96079800D01*
X156541000Y-87748600D02*
X156541000Y-94886000D01*
X135459000Y-87748600D02*
X135459000Y-94886000D01*
X144349000Y-94809800D02*
G75*
G02X147651000Y-94809800I1651000J-1651000D01*
G01*
X155321800Y-96054400D02*
G75*
G03X156541000Y-94886000I25400J1193800D01*
G01*
X136678200Y-96079800D02*
G75*
G02X135459000Y-94911400I-25400J1193800D01*
G01*
D13*
X147500000Y-95700000D02*
X147414286Y-95733333D01*
X147385714Y-95766667D01*
X147357143Y-95833333D01*
X147357143Y-95933333D01*
X147385714Y-96000000D01*
X147414286Y-96033333D01*
X147471428Y-96066667D01*
X147700000Y-96066667D01*
X147700000Y-95366667D01*
X147500000Y-95366667D01*
X147442857Y-95400000D01*
X147414286Y-95433333D01*
X147385714Y-95500000D01*
X147385714Y-95566667D01*
X147414286Y-95633333D01*
X147442857Y-95666667D01*
X147500000Y-95700000D01*
X147700000Y-95700000D01*
X147128571Y-95866667D02*
X146842857Y-95866667D01*
X147185714Y-96066667D02*
X146985714Y-95366667D01*
X146785714Y-96066667D01*
X146671428Y-95366667D02*
X146328571Y-95366667D01*
X146500000Y-96066667D02*
X146500000Y-95366667D01*
X146214285Y-95366667D02*
X145871428Y-95366667D01*
X146042857Y-96066667D02*
X146042857Y-95366667D01*
X145671428Y-95700000D02*
X145471428Y-95700000D01*
X145385714Y-96066667D02*
X145671428Y-96066667D01*
X145671428Y-95366667D01*
X145385714Y-95366667D01*
X144785714Y-96066667D02*
X144985714Y-95733333D01*
X145128571Y-96066667D02*
X145128571Y-95366667D01*
X144899999Y-95366667D01*
X144842857Y-95400000D01*
X144814285Y-95433333D01*
X144785714Y-95500000D01*
X144785714Y-95600000D01*
X144814285Y-95666667D01*
X144842857Y-95700000D01*
X144899999Y-95733333D01*
X145128571Y-95733333D01*
X144414285Y-95733333D02*
X144414285Y-96066667D01*
X144614285Y-95366667D02*
X144414285Y-95733333D01*
X144214285Y-95366667D01*
M02*
