G04 #@! TF.FileFunction,Other,Comment*
%FSLAX46Y46*%
G04 Gerber Fmt 4.6, Leading zero omitted, Abs format (unit mm)*
G04 Created by KiCad (PCBNEW 4.0.6) date 08/10/17 10:11:21*
%MOMM*%
%LPD*%
G01*
G04 APERTURE LIST*
%ADD10C,0.100000*%
%ADD11C,0.300000*%
G04 APERTURE END LIST*
D10*
D11*
X129700187Y-103549166D02*
X130451156Y-104095325D01*
X129710690Y-104263375D01*
X129883991Y-104389412D01*
X129957512Y-104531203D01*
X129973267Y-104630982D01*
X129947009Y-104788528D01*
X129736947Y-105077362D01*
X129595157Y-105150884D01*
X129495377Y-105166639D01*
X129337831Y-105140380D01*
X128991230Y-104888307D01*
X128917708Y-104746516D01*
X128901954Y-104646737D01*
X130188579Y-105670785D02*
X130146567Y-105728552D01*
X130004775Y-105802074D01*
X129904996Y-105817828D01*
X131774542Y-105676037D02*
X131186371Y-106484773D01*
X131821806Y-105003841D02*
X130902788Y-105660282D01*
X131653757Y-106206442D01*
X132935131Y-105901852D02*
X133050664Y-105985877D01*
X133124185Y-106127668D01*
X133139940Y-106227448D01*
X133113683Y-106384994D01*
X133003400Y-106658073D01*
X132793339Y-106946908D01*
X132567524Y-107135963D01*
X132425732Y-107209484D01*
X132325952Y-107225239D01*
X132168407Y-107198981D01*
X132052873Y-107114956D01*
X131979352Y-106973166D01*
X131963597Y-106873386D01*
X131989855Y-106715840D01*
X132100137Y-106442761D01*
X132310198Y-106153926D01*
X132536014Y-105964871D01*
X132677805Y-105891350D01*
X132777585Y-105875595D01*
X132935131Y-105901852D01*
X134090468Y-106742097D02*
X134206001Y-106826122D01*
X134279522Y-106967913D01*
X134295277Y-107067693D01*
X134269020Y-107225239D01*
X134158737Y-107498318D01*
X133948676Y-107787153D01*
X133722861Y-107976208D01*
X133581069Y-108049729D01*
X133481289Y-108065484D01*
X133323744Y-108039226D01*
X133208210Y-107955201D01*
X133134688Y-107813411D01*
X133118934Y-107713631D01*
X133145192Y-107556085D01*
X133255473Y-107283006D01*
X133465535Y-106994171D01*
X133691351Y-106805116D01*
X133833142Y-106731595D01*
X133932922Y-106715840D01*
X134090468Y-106742097D01*
X135056750Y-109299594D02*
X135644921Y-108490858D01*
X135560896Y-108606392D02*
X135660675Y-108590637D01*
X135818222Y-108616895D01*
X135991522Y-108742931D01*
X136065043Y-108884723D01*
X136038786Y-109042269D01*
X135576651Y-109677704D01*
X136038786Y-109042269D02*
X136180578Y-108968748D01*
X136338124Y-108995005D01*
X136511424Y-109121041D01*
X136584946Y-109262833D01*
X136558688Y-109420379D01*
X136096553Y-110055814D01*
X136674222Y-110475937D02*
X137262393Y-109667201D01*
X137178368Y-109782735D02*
X137278147Y-109766980D01*
X137435694Y-109793238D01*
X137608994Y-109919274D01*
X137682515Y-110061066D01*
X137656258Y-110218612D01*
X137194123Y-110854047D01*
X137656258Y-110218612D02*
X137798050Y-110145091D01*
X137955596Y-110171348D01*
X138128896Y-110297385D01*
X138202418Y-110439177D01*
X138176160Y-110596722D01*
X137714025Y-111232158D01*
X133141892Y-105398648D02*
X135891892Y-107398648D01*
X137250000Y-99750000D02*
X131553829Y-107582235D01*
X140000000Y-101750000D02*
X134303829Y-109582235D01*
X135891892Y-107398648D02*
X134635932Y-107210330D01*
X135891892Y-107398648D02*
X135325764Y-106261811D01*
X133141892Y-105398648D02*
X133708020Y-106535485D01*
X133141892Y-105398648D02*
X134397852Y-105586966D01*
X139589287Y-66828571D02*
X140517858Y-66828571D01*
X140017858Y-67400000D01*
X140232144Y-67400000D01*
X140375001Y-67471429D01*
X140446430Y-67542857D01*
X140517858Y-67685714D01*
X140517858Y-68042857D01*
X140446430Y-68185714D01*
X140375001Y-68257143D01*
X140232144Y-68328571D01*
X139803572Y-68328571D01*
X139660715Y-68257143D01*
X139589287Y-68185714D01*
X141803572Y-66828571D02*
X141517858Y-66828571D01*
X141375001Y-66900000D01*
X141303572Y-66971429D01*
X141160715Y-67185714D01*
X141089286Y-67471429D01*
X141089286Y-68042857D01*
X141160715Y-68185714D01*
X141232143Y-68257143D01*
X141375001Y-68328571D01*
X141660715Y-68328571D01*
X141803572Y-68257143D01*
X141875001Y-68185714D01*
X141946429Y-68042857D01*
X141946429Y-67685714D01*
X141875001Y-67542857D01*
X141803572Y-67471429D01*
X141660715Y-67400000D01*
X141375001Y-67400000D01*
X141232143Y-67471429D01*
X141160715Y-67542857D01*
X141089286Y-67685714D01*
X142660714Y-68257143D02*
X142660714Y-68328571D01*
X142589286Y-68471429D01*
X142517857Y-68542857D01*
X143232143Y-66971429D02*
X143303572Y-66900000D01*
X143446429Y-66828571D01*
X143803572Y-66828571D01*
X143946429Y-66900000D01*
X144017858Y-66971429D01*
X144089286Y-67114286D01*
X144089286Y-67257143D01*
X144017858Y-67471429D01*
X143160715Y-68328571D01*
X144089286Y-68328571D01*
X145446429Y-66828571D02*
X144732143Y-66828571D01*
X144660714Y-67542857D01*
X144732143Y-67471429D01*
X144875000Y-67400000D01*
X145232143Y-67400000D01*
X145375000Y-67471429D01*
X145446429Y-67542857D01*
X145517857Y-67685714D01*
X145517857Y-68042857D01*
X145446429Y-68185714D01*
X145375000Y-68257143D01*
X145232143Y-68328571D01*
X144875000Y-68328571D01*
X144732143Y-68257143D01*
X144660714Y-68185714D01*
X146446428Y-66828571D02*
X146589285Y-66828571D01*
X146732142Y-66900000D01*
X146803571Y-66971429D01*
X146875000Y-67114286D01*
X146946428Y-67400000D01*
X146946428Y-67757143D01*
X146875000Y-68042857D01*
X146803571Y-68185714D01*
X146732142Y-68257143D01*
X146589285Y-68328571D01*
X146446428Y-68328571D01*
X146303571Y-68257143D01*
X146232142Y-68185714D01*
X146160714Y-68042857D01*
X146089285Y-67757143D01*
X146089285Y-67400000D01*
X146160714Y-67114286D01*
X146232142Y-66971429D01*
X146303571Y-66900000D01*
X146446428Y-66828571D01*
X148732142Y-68328571D02*
X148732142Y-67328571D01*
X148732142Y-67471429D02*
X148803570Y-67400000D01*
X148946428Y-67328571D01*
X149160713Y-67328571D01*
X149303570Y-67400000D01*
X149374999Y-67542857D01*
X149374999Y-68328571D01*
X149374999Y-67542857D02*
X149446428Y-67400000D01*
X149589285Y-67328571D01*
X149803570Y-67328571D01*
X149946428Y-67400000D01*
X150017856Y-67542857D01*
X150017856Y-68328571D01*
X150732142Y-68328571D02*
X150732142Y-67328571D01*
X150732142Y-67471429D02*
X150803570Y-67400000D01*
X150946428Y-67328571D01*
X151160713Y-67328571D01*
X151303570Y-67400000D01*
X151374999Y-67542857D01*
X151374999Y-68328571D01*
X151374999Y-67542857D02*
X151446428Y-67400000D01*
X151589285Y-67328571D01*
X151803570Y-67328571D01*
X151946428Y-67400000D01*
X152017856Y-67542857D01*
X152017856Y-68328571D01*
X127750000Y-69000000D02*
X164000000Y-69000000D01*
X127750000Y-88250000D02*
X127750000Y-66300000D01*
X164000000Y-88250000D02*
X164000000Y-66300000D01*
X164000000Y-69000000D02*
X162873496Y-69586421D01*
X164000000Y-69000000D02*
X162873496Y-68413579D01*
X127750000Y-69000000D02*
X128876504Y-69586421D01*
X127750000Y-69000000D02*
X128876504Y-68413579D01*
M02*
