G04 #@! TF.FileFunction,Copper,L1,Top,Signal*
%FSLAX46Y46*%
G04 Gerber Fmt 4.6, Leading zero omitted, Abs format (unit mm)*
G04 Created by KiCad (PCBNEW 4.0.6) date 08/10/17 10:11:21*
%MOMM*%
%LPD*%
G01*
G04 APERTURE LIST*
%ADD10C,0.100000*%
%ADD11R,1.800000X0.600000*%
%ADD12C,2.199640*%
%ADD13R,0.599440X0.398780*%
%ADD14R,0.398780X0.599440*%
%ADD15R,1.500000X0.900000*%
%ADD16R,1.700000X1.700000*%
%ADD17O,1.700000X1.700000*%
%ADD18R,1.000000X3.500000*%
%ADD19R,1.500000X3.400000*%
%ADD20R,1.000000X1.200000*%
%ADD21R,1.998980X1.600200*%
%ADD22C,0.500000*%
%ADD23C,0.250000*%
%ADD24C,0.300000*%
%ADD25C,0.200000*%
G04 APERTURE END LIST*
D10*
D11*
X149550000Y-93155000D03*
X149550000Y-91885000D03*
X149550000Y-90615000D03*
X149550000Y-89345000D03*
X141950000Y-89345000D03*
X141950000Y-90615000D03*
X141950000Y-91885000D03*
X141950000Y-93155000D03*
D12*
X156541000Y-86250000D03*
X135459000Y-86250000D03*
D13*
X140000000Y-76199580D03*
X140000000Y-75300420D03*
X135500000Y-77449580D03*
X135500000Y-76550420D03*
D14*
X153300420Y-76500000D03*
X154199580Y-76500000D03*
D15*
X132750000Y-83150000D03*
X138250000Y-83150000D03*
X138250000Y-79850000D03*
X132750000Y-79850000D03*
X143250000Y-79400000D03*
X148750000Y-79400000D03*
X148750000Y-76100000D03*
X143250000Y-76100000D03*
X153250000Y-83150000D03*
X158750000Y-83150000D03*
X158750000Y-79850000D03*
X153250000Y-79850000D03*
D16*
X143250000Y-83500000D03*
D17*
X143250000Y-86040000D03*
X145790000Y-83500000D03*
X145790000Y-86040000D03*
X148330000Y-83500000D03*
X148330000Y-86040000D03*
D18*
X144750000Y-96875000D03*
X146750000Y-96875000D03*
D19*
X142400000Y-102625000D03*
X149100000Y-102625000D03*
D20*
X137000000Y-95100000D03*
X134500000Y-95100000D03*
X132000000Y-95100000D03*
X137000000Y-89400000D03*
X134500000Y-89400000D03*
X132000000Y-89400000D03*
D21*
X154500260Y-91750000D03*
X160499740Y-91750000D03*
D13*
X139750000Y-94550420D03*
X139750000Y-95449580D03*
D22*
X152250000Y-86000000D03*
X152750000Y-93000000D03*
X144500000Y-84750000D03*
X143750000Y-90500000D03*
X147000000Y-84750000D03*
X146250000Y-91500000D03*
X139250000Y-81500000D03*
X141500000Y-79750000D03*
X151250000Y-75000000D03*
X151250000Y-82000000D03*
D23*
X149550000Y-93155000D02*
X152595000Y-93155000D01*
X149750000Y-83500000D02*
X148330000Y-83500000D01*
X152250000Y-86000000D02*
X149750000Y-83500000D01*
X152595000Y-93155000D02*
X152750000Y-93000000D01*
X149550000Y-91885000D02*
X154365260Y-91885000D01*
X154365260Y-91885000D02*
X154500260Y-91750000D01*
X153865260Y-91885000D02*
X154250260Y-91500000D01*
X149550000Y-90615000D02*
X152135000Y-90615000D01*
X157400000Y-79850000D02*
X158750000Y-79850000D01*
X156000000Y-81250000D02*
X157400000Y-79850000D01*
X156000000Y-83750000D02*
X156000000Y-81250000D01*
X153750000Y-86000000D02*
X156000000Y-83750000D01*
X153750000Y-89000000D02*
X153750000Y-86000000D01*
X152135000Y-90615000D02*
X153750000Y-89000000D01*
X141950000Y-89345000D02*
X144905000Y-89345000D01*
X145790000Y-88460000D02*
X145790000Y-86040000D01*
X144905000Y-89345000D02*
X145790000Y-88460000D01*
X141950000Y-90615000D02*
X143635000Y-90615000D01*
X144500000Y-84000000D02*
X144000000Y-83500000D01*
X144500000Y-84750000D02*
X144500000Y-84000000D01*
X143635000Y-90615000D02*
X143750000Y-90500000D01*
X144000000Y-83500000D02*
X143250000Y-83500000D01*
X141950000Y-91885000D02*
X145865000Y-91885000D01*
X147000000Y-84000000D02*
X146500000Y-83500000D01*
X147000000Y-84750000D02*
X147000000Y-84000000D01*
X145865000Y-91885000D02*
X146250000Y-91500000D01*
X146500000Y-83500000D02*
X145790000Y-83500000D01*
D24*
X139750000Y-94550420D02*
X141199580Y-94550420D01*
X141199580Y-94550420D02*
X141950000Y-93800000D01*
X141950000Y-93800000D02*
X141950000Y-93155000D01*
X137000000Y-95100000D02*
X137900000Y-95100000D01*
X138449580Y-94550420D02*
X139750000Y-94550420D01*
X137900000Y-95100000D02*
X138449580Y-94550420D01*
X137000000Y-95100000D02*
X137000000Y-93500000D01*
X139500000Y-87500000D02*
X140000000Y-87000000D01*
X139500000Y-87500000D02*
X139500000Y-88500000D01*
X139500000Y-91000000D02*
X139500000Y-88500000D01*
X137000000Y-93500000D02*
X139500000Y-91000000D01*
X140000000Y-87000000D02*
X141000000Y-87000000D01*
X141960000Y-86040000D02*
X143250000Y-86040000D01*
X141000000Y-87000000D02*
X141960000Y-86040000D01*
X140000000Y-86000000D02*
X140000000Y-87000000D01*
X143210000Y-86000000D02*
X143250000Y-86040000D01*
X140500000Y-78500000D02*
X140500000Y-78250000D01*
X151000000Y-76500000D02*
X153300420Y-76500000D01*
X150000000Y-77500000D02*
X151000000Y-76500000D01*
X141250000Y-77500000D02*
X150000000Y-77500000D01*
X140500000Y-78250000D02*
X141250000Y-77500000D01*
X139250000Y-77449580D02*
X139250000Y-76949580D01*
X139250000Y-76949580D02*
X140000000Y-76199580D01*
X140000000Y-86040000D02*
X140000000Y-86000000D01*
X140000000Y-86000000D02*
X140000000Y-84250000D01*
X140500000Y-83750000D02*
X140500000Y-78500000D01*
X140000000Y-84250000D02*
X140500000Y-83750000D01*
X139449580Y-77449580D02*
X139250000Y-77449580D01*
X139250000Y-77449580D02*
X135500000Y-77449580D01*
X140500000Y-78500000D02*
X139449580Y-77449580D01*
X143250000Y-76100000D02*
X140099580Y-76100000D01*
X140099580Y-76100000D02*
X140000000Y-76199580D01*
X153300420Y-76500000D02*
X153300420Y-79799580D01*
X153300420Y-79799580D02*
X153250000Y-79850000D01*
X143099580Y-76199580D02*
X143250000Y-76350000D01*
X132750000Y-79850000D02*
X134650000Y-79850000D01*
X134650000Y-79850000D02*
X135500000Y-79000000D01*
X135500000Y-79000000D02*
X135500000Y-77449580D01*
D23*
X143250000Y-79400000D02*
X141850000Y-79400000D01*
X138250000Y-81250000D02*
X138250000Y-79850000D01*
X138500000Y-81500000D02*
X138250000Y-81250000D01*
X139250000Y-81500000D02*
X138500000Y-81500000D01*
X141850000Y-79400000D02*
X141500000Y-79750000D01*
X153250000Y-83150000D02*
X152400000Y-83150000D01*
X148750000Y-75000000D02*
X148750000Y-76100000D01*
X149500000Y-74250000D02*
X148750000Y-75000000D01*
X150500000Y-74250000D02*
X149500000Y-74250000D01*
X151250000Y-75000000D02*
X150500000Y-74250000D01*
X152400000Y-83150000D02*
X151250000Y-82000000D01*
D25*
X153750000Y-83150000D02*
X153650000Y-83150000D01*
D24*
X144750000Y-96875000D02*
X136275000Y-96875000D01*
X136275000Y-96875000D02*
X134500000Y-95100000D01*
D23*
G36*
X144598935Y-71257426D02*
X144287150Y-71562748D01*
X144040607Y-71922815D01*
X143868697Y-72323911D01*
X143777968Y-72750759D01*
X143771875Y-73187101D01*
X143850651Y-73616316D01*
X144011294Y-74022056D01*
X144247687Y-74388866D01*
X144550825Y-74702775D01*
X144909162Y-74951825D01*
X145309048Y-75126531D01*
X145735253Y-75220238D01*
X146171541Y-75229377D01*
X146601296Y-75153600D01*
X147008147Y-74995792D01*
X147376599Y-74761966D01*
X147692616Y-74461027D01*
X147944162Y-74104438D01*
X148121655Y-73705781D01*
X148218336Y-73280241D01*
X148225296Y-72781808D01*
X148140535Y-72353734D01*
X147974242Y-71950277D01*
X147732750Y-71586803D01*
X147425259Y-71277158D01*
X147272912Y-71174399D01*
X149213255Y-71378337D01*
X152424355Y-72372338D01*
X155381230Y-73971114D01*
X157971255Y-76113769D01*
X160095776Y-78718689D01*
X161673871Y-81686654D01*
X162645430Y-84904615D01*
X162973448Y-88250000D01*
X162966733Y-88730907D01*
X162545434Y-92065829D01*
X161484403Y-95255407D01*
X159824053Y-98178152D01*
X157627626Y-100722736D01*
X154978785Y-102792238D01*
X151978422Y-104307831D01*
X150276639Y-104782977D01*
X150380537Y-104661073D01*
X150453160Y-104499963D01*
X150478024Y-104325000D01*
X150478024Y-101187101D01*
X150771875Y-101187101D01*
X150850651Y-101616316D01*
X151011294Y-102022056D01*
X151247687Y-102388866D01*
X151550825Y-102702775D01*
X151909162Y-102951825D01*
X152309048Y-103126531D01*
X152735253Y-103220238D01*
X153171541Y-103229377D01*
X153601296Y-103153600D01*
X154008147Y-102995792D01*
X154376599Y-102761966D01*
X154692616Y-102461027D01*
X154944162Y-102104438D01*
X155121655Y-101705781D01*
X155218336Y-101280241D01*
X155225296Y-100781808D01*
X155140535Y-100353734D01*
X154974242Y-99950277D01*
X154732750Y-99586803D01*
X154425259Y-99277158D01*
X154063480Y-99033135D01*
X153661193Y-98864029D01*
X153233722Y-98776282D01*
X152797349Y-98773235D01*
X152368694Y-98855006D01*
X151964085Y-99018478D01*
X151598935Y-99257426D01*
X151287150Y-99562748D01*
X151040607Y-99922815D01*
X150868697Y-100323911D01*
X150777968Y-100750759D01*
X150771875Y-101187101D01*
X150478024Y-101187101D01*
X150478024Y-100925000D01*
X150470087Y-100825471D01*
X150417809Y-100656659D01*
X150320571Y-100509095D01*
X150186073Y-100394463D01*
X150024963Y-100321840D01*
X149850000Y-100296976D01*
X148350000Y-100296976D01*
X148250471Y-100304913D01*
X148081659Y-100357191D01*
X147934095Y-100454429D01*
X147819463Y-100588927D01*
X147746840Y-100750037D01*
X147721976Y-100925000D01*
X147721976Y-104325000D01*
X147729913Y-104424529D01*
X147782191Y-104593341D01*
X147879429Y-104740905D01*
X148013927Y-104855537D01*
X148175037Y-104928160D01*
X148350000Y-104953024D01*
X149667598Y-104953024D01*
X148740820Y-105211785D01*
X145389299Y-105469671D01*
X142051517Y-105071664D01*
X141686380Y-104953024D01*
X143150000Y-104953024D01*
X143249529Y-104945087D01*
X143418341Y-104892809D01*
X143565905Y-104795571D01*
X143680537Y-104661073D01*
X143753160Y-104499963D01*
X143778024Y-104325000D01*
X143778024Y-100925000D01*
X143770087Y-100825471D01*
X143717809Y-100656659D01*
X143620571Y-100509095D01*
X143486073Y-100394463D01*
X143324963Y-100321840D01*
X143150000Y-100296976D01*
X141650000Y-100296976D01*
X141550471Y-100304913D01*
X141381659Y-100357191D01*
X141234095Y-100454429D01*
X141119463Y-100588927D01*
X141046840Y-100750037D01*
X141021976Y-100925000D01*
X141021976Y-104325000D01*
X141029913Y-104424529D01*
X141082191Y-104593341D01*
X141179429Y-104740905D01*
X141269309Y-104817509D01*
X138854609Y-104032926D01*
X135920345Y-102393021D01*
X134503394Y-101187101D01*
X136271875Y-101187101D01*
X136350651Y-101616316D01*
X136511294Y-102022056D01*
X136747687Y-102388866D01*
X137050825Y-102702775D01*
X137409162Y-102951825D01*
X137809048Y-103126531D01*
X138235253Y-103220238D01*
X138671541Y-103229377D01*
X139101296Y-103153600D01*
X139508147Y-102995792D01*
X139876599Y-102761966D01*
X140192616Y-102461027D01*
X140444162Y-102104438D01*
X140621655Y-101705781D01*
X140718336Y-101280241D01*
X140725296Y-100781808D01*
X140640535Y-100353734D01*
X140474242Y-99950277D01*
X140232750Y-99586803D01*
X139925259Y-99277158D01*
X139563480Y-99033135D01*
X139161193Y-98864029D01*
X138733722Y-98776282D01*
X138297349Y-98773235D01*
X137868694Y-98855006D01*
X137464085Y-99018478D01*
X137098935Y-99257426D01*
X136787150Y-99562748D01*
X136540607Y-99922815D01*
X136368697Y-100323911D01*
X136277968Y-100750759D01*
X136271875Y-101187101D01*
X134503394Y-101187101D01*
X133360488Y-100214412D01*
X131272545Y-97580083D01*
X129736043Y-94590374D01*
X129710129Y-94500000D01*
X130871976Y-94500000D01*
X130871976Y-95700000D01*
X130879913Y-95799529D01*
X130932191Y-95968341D01*
X131029429Y-96115905D01*
X131163927Y-96230537D01*
X131325037Y-96303160D01*
X131500000Y-96328024D01*
X132500000Y-96328024D01*
X132599529Y-96320087D01*
X132768341Y-96267809D01*
X132915905Y-96170571D01*
X133030537Y-96036073D01*
X133103160Y-95874963D01*
X133128024Y-95700000D01*
X133128024Y-94500000D01*
X133120087Y-94400471D01*
X133067809Y-94231659D01*
X132970571Y-94084095D01*
X132836073Y-93969463D01*
X132674963Y-93896840D01*
X132500000Y-93871976D01*
X131500000Y-93871976D01*
X131400471Y-93879913D01*
X131231659Y-93932191D01*
X131084095Y-94029429D01*
X130969463Y-94163927D01*
X130896840Y-94325037D01*
X130871976Y-94500000D01*
X129710129Y-94500000D01*
X129090268Y-92338287D01*
X131948619Y-92338287D01*
X131985791Y-92540820D01*
X132061594Y-92732275D01*
X132173140Y-92905361D01*
X132316181Y-93053485D01*
X132485269Y-93171003D01*
X132673962Y-93253442D01*
X132875074Y-93297659D01*
X133080945Y-93301971D01*
X133283732Y-93266215D01*
X133475712Y-93191750D01*
X133649573Y-93081415D01*
X133798691Y-92939412D01*
X133917388Y-92771149D01*
X134001141Y-92583035D01*
X134046761Y-92382237D01*
X134050046Y-92147042D01*
X134010050Y-91945048D01*
X133931581Y-91754669D01*
X133817629Y-91583158D01*
X133672534Y-91437046D01*
X133501822Y-91321900D01*
X133311996Y-91242104D01*
X133110286Y-91200699D01*
X132904375Y-91199261D01*
X132702107Y-91237846D01*
X132511185Y-91314983D01*
X132338882Y-91427735D01*
X132191761Y-91571807D01*
X132075425Y-91741711D01*
X131994307Y-91930975D01*
X131951494Y-92132391D01*
X131948619Y-92338287D01*
X129090268Y-92338287D01*
X128809508Y-91359162D01*
X128594610Y-88800000D01*
X130871976Y-88800000D01*
X130871976Y-90000000D01*
X130879913Y-90099529D01*
X130932191Y-90268341D01*
X131029429Y-90415905D01*
X131163927Y-90530537D01*
X131325037Y-90603160D01*
X131500000Y-90628024D01*
X132500000Y-90628024D01*
X132599529Y-90620087D01*
X132768341Y-90567809D01*
X132915905Y-90470571D01*
X133030537Y-90336073D01*
X133103160Y-90174963D01*
X133128024Y-90000000D01*
X133128024Y-88800000D01*
X133371976Y-88800000D01*
X133371976Y-90000000D01*
X133379913Y-90099529D01*
X133432191Y-90268341D01*
X133529429Y-90415905D01*
X133663927Y-90530537D01*
X133825037Y-90603160D01*
X134000000Y-90628024D01*
X135000000Y-90628024D01*
X135099529Y-90620087D01*
X135268341Y-90567809D01*
X135415905Y-90470571D01*
X135530537Y-90336073D01*
X135603160Y-90174963D01*
X135628024Y-90000000D01*
X135628024Y-88800000D01*
X135871976Y-88800000D01*
X135871976Y-90000000D01*
X135879913Y-90099529D01*
X135932191Y-90268341D01*
X136029429Y-90415905D01*
X136163927Y-90530537D01*
X136325037Y-90603160D01*
X136500000Y-90628024D01*
X137500000Y-90628024D01*
X137599529Y-90620087D01*
X137768341Y-90567809D01*
X137915905Y-90470571D01*
X138030537Y-90336073D01*
X138103160Y-90174963D01*
X138128024Y-90000000D01*
X138128024Y-88800000D01*
X138120087Y-88700471D01*
X138067809Y-88531659D01*
X137970571Y-88384095D01*
X137836073Y-88269463D01*
X137674963Y-88196840D01*
X137500000Y-88171976D01*
X136500000Y-88171976D01*
X136400471Y-88179913D01*
X136231659Y-88232191D01*
X136084095Y-88329429D01*
X135969463Y-88463927D01*
X135896840Y-88625037D01*
X135871976Y-88800000D01*
X135628024Y-88800000D01*
X135620087Y-88700471D01*
X135567809Y-88531659D01*
X135470571Y-88384095D01*
X135336073Y-88269463D01*
X135174963Y-88196840D01*
X135000000Y-88171976D01*
X134000000Y-88171976D01*
X133900471Y-88179913D01*
X133731659Y-88232191D01*
X133584095Y-88329429D01*
X133469463Y-88463927D01*
X133396840Y-88625037D01*
X133371976Y-88800000D01*
X133128024Y-88800000D01*
X133120087Y-88700471D01*
X133067809Y-88531659D01*
X132970571Y-88384095D01*
X132836073Y-88269463D01*
X132674963Y-88196840D01*
X132500000Y-88171976D01*
X131500000Y-88171976D01*
X131400471Y-88179913D01*
X131231659Y-88232191D01*
X131084095Y-88329429D01*
X130969463Y-88463927D01*
X130896840Y-88625037D01*
X130871976Y-88800000D01*
X128594610Y-88800000D01*
X128528231Y-88009523D01*
X128571867Y-87620494D01*
X134406704Y-87620494D01*
X134511893Y-87936375D01*
X134859086Y-88088744D01*
X135229335Y-88170450D01*
X135608408Y-88178354D01*
X135981741Y-88112154D01*
X136334984Y-87974391D01*
X136406107Y-87936375D01*
X136511296Y-87620494D01*
X135459000Y-86568198D01*
X134406704Y-87620494D01*
X128571867Y-87620494D01*
X128708834Y-86399408D01*
X133530646Y-86399408D01*
X133596846Y-86772741D01*
X133734609Y-87125984D01*
X133772625Y-87197107D01*
X134088506Y-87302296D01*
X135140802Y-86250000D01*
X135777198Y-86250000D01*
X136829494Y-87302296D01*
X137145375Y-87197107D01*
X137297744Y-86849914D01*
X137379450Y-86479665D01*
X137387354Y-86100592D01*
X137321154Y-85727259D01*
X137183391Y-85374016D01*
X137145375Y-85302893D01*
X136829494Y-85197704D01*
X135777198Y-86250000D01*
X135140802Y-86250000D01*
X134088506Y-85197704D01*
X133772625Y-85302893D01*
X133620256Y-85650086D01*
X133538550Y-86020335D01*
X133530646Y-86399408D01*
X128708834Y-86399408D01*
X128879318Y-84879506D01*
X134406704Y-84879506D01*
X135459000Y-85931802D01*
X136511296Y-84879506D01*
X136406107Y-84563625D01*
X136058914Y-84411256D01*
X135688665Y-84329550D01*
X135309592Y-84321646D01*
X134936259Y-84387846D01*
X134583016Y-84525609D01*
X134511893Y-84563625D01*
X134406704Y-84879506D01*
X128879318Y-84879506D01*
X128902926Y-84669044D01*
X129527543Y-82700000D01*
X131371976Y-82700000D01*
X131371976Y-83600000D01*
X131379913Y-83699529D01*
X131432191Y-83868341D01*
X131529429Y-84015905D01*
X131663927Y-84130537D01*
X131825037Y-84203160D01*
X132000000Y-84228024D01*
X133500000Y-84228024D01*
X133599529Y-84220087D01*
X133768341Y-84167809D01*
X133915905Y-84070571D01*
X134030537Y-83936073D01*
X134103160Y-83774963D01*
X134128024Y-83600000D01*
X134128024Y-83581250D01*
X136675000Y-83581250D01*
X136675000Y-83681256D01*
X136706704Y-83840644D01*
X136768895Y-83990784D01*
X136859181Y-84125907D01*
X136974093Y-84240820D01*
X137109216Y-84331106D01*
X137259357Y-84393296D01*
X137418745Y-84425000D01*
X137818750Y-84425000D01*
X138025000Y-84218750D01*
X138025000Y-83375000D01*
X136881250Y-83375000D01*
X136675000Y-83581250D01*
X134128024Y-83581250D01*
X134128024Y-82700000D01*
X134120087Y-82600471D01*
X134067809Y-82431659D01*
X133970571Y-82284095D01*
X133836073Y-82169463D01*
X133674963Y-82096840D01*
X133500000Y-82071976D01*
X132000000Y-82071976D01*
X131900471Y-82079913D01*
X131731659Y-82132191D01*
X131584095Y-82229429D01*
X131469463Y-82363927D01*
X131396840Y-82525037D01*
X131371976Y-82700000D01*
X129527543Y-82700000D01*
X129919320Y-81464962D01*
X131054542Y-79400000D01*
X131371976Y-79400000D01*
X131371976Y-80300000D01*
X131379913Y-80399529D01*
X131432191Y-80568341D01*
X131529429Y-80715905D01*
X131663927Y-80830537D01*
X131825037Y-80903160D01*
X132000000Y-80928024D01*
X133500000Y-80928024D01*
X133599529Y-80920087D01*
X133768341Y-80867809D01*
X133915905Y-80770571D01*
X134030537Y-80636073D01*
X134035528Y-80625000D01*
X134650000Y-80625000D01*
X134721249Y-80618014D01*
X134792563Y-80611775D01*
X134796478Y-80610637D01*
X134800532Y-80610240D01*
X134869023Y-80589562D01*
X134937810Y-80569577D01*
X134941430Y-80567700D01*
X134945330Y-80566523D01*
X135008511Y-80532929D01*
X135072095Y-80499970D01*
X135075281Y-80497426D01*
X135078878Y-80495514D01*
X135134359Y-80450265D01*
X135190302Y-80405606D01*
X135195975Y-80400012D01*
X135196092Y-80399917D01*
X135196181Y-80399809D01*
X135198008Y-80398008D01*
X136048008Y-79548007D01*
X136093434Y-79492704D01*
X136139463Y-79437849D01*
X136141427Y-79434276D01*
X136144013Y-79431128D01*
X136177824Y-79368071D01*
X136212330Y-79305305D01*
X136213563Y-79301418D01*
X136215488Y-79297828D01*
X136236414Y-79229383D01*
X136258064Y-79161132D01*
X136258518Y-79157082D01*
X136259710Y-79153184D01*
X136266950Y-79081910D01*
X136274924Y-79010821D01*
X136274980Y-79002863D01*
X136274996Y-79002704D01*
X136274982Y-79002556D01*
X136275000Y-79000000D01*
X136275000Y-78224580D01*
X139128564Y-78224580D01*
X139725000Y-78821016D01*
X139725000Y-80764905D01*
X139668185Y-80726583D01*
X139510051Y-80660110D01*
X139530537Y-80636073D01*
X139603160Y-80474963D01*
X139628024Y-80300000D01*
X139628024Y-79400000D01*
X139620087Y-79300471D01*
X139567809Y-79131659D01*
X139470571Y-78984095D01*
X139336073Y-78869463D01*
X139174963Y-78796840D01*
X139000000Y-78771976D01*
X137500000Y-78771976D01*
X137400471Y-78779913D01*
X137231659Y-78832191D01*
X137084095Y-78929429D01*
X136969463Y-79063927D01*
X136896840Y-79225037D01*
X136871976Y-79400000D01*
X136871976Y-80300000D01*
X136879913Y-80399529D01*
X136932191Y-80568341D01*
X137029429Y-80715905D01*
X137163927Y-80830537D01*
X137325037Y-80903160D01*
X137500000Y-80928024D01*
X137500000Y-81250000D01*
X137506757Y-81318907D01*
X137512799Y-81387964D01*
X137513899Y-81391751D01*
X137514284Y-81395676D01*
X137534315Y-81462024D01*
X137553636Y-81528527D01*
X137555450Y-81532026D01*
X137556590Y-81535803D01*
X137589129Y-81597000D01*
X137620997Y-81658479D01*
X137623457Y-81661560D01*
X137625309Y-81665044D01*
X137669107Y-81718746D01*
X137712317Y-81772874D01*
X137717728Y-81778361D01*
X137717822Y-81778476D01*
X137717928Y-81778564D01*
X137719670Y-81780330D01*
X137814340Y-81875000D01*
X137418745Y-81875000D01*
X137259357Y-81906704D01*
X137109216Y-81968894D01*
X136974093Y-82059180D01*
X136859181Y-82174093D01*
X136768895Y-82309216D01*
X136706704Y-82459356D01*
X136675000Y-82618744D01*
X136675000Y-82718750D01*
X136881250Y-82925000D01*
X138025000Y-82925000D01*
X138025000Y-82905000D01*
X138475000Y-82905000D01*
X138475000Y-82925000D01*
X138495000Y-82925000D01*
X138495000Y-83375000D01*
X138475000Y-83375000D01*
X138475000Y-84218750D01*
X138681250Y-84425000D01*
X139081255Y-84425000D01*
X139225000Y-84396408D01*
X139225000Y-86678984D01*
X138951992Y-86951992D01*
X138906527Y-87007342D01*
X138860537Y-87062151D01*
X138858574Y-87065721D01*
X138855987Y-87068871D01*
X138822165Y-87131950D01*
X138787670Y-87194695D01*
X138786437Y-87198582D01*
X138784512Y-87202172D01*
X138763582Y-87270630D01*
X138741936Y-87338868D01*
X138741482Y-87342917D01*
X138740290Y-87346815D01*
X138733054Y-87418055D01*
X138725076Y-87489179D01*
X138725020Y-87497147D01*
X138725005Y-87497295D01*
X138725018Y-87497433D01*
X138725000Y-87500000D01*
X138725000Y-90678984D01*
X137047115Y-92356869D01*
X137050046Y-92147042D01*
X137010050Y-91945048D01*
X136931581Y-91754669D01*
X136817629Y-91583158D01*
X136672534Y-91437046D01*
X136501822Y-91321900D01*
X136311996Y-91242104D01*
X136110286Y-91200699D01*
X135904375Y-91199261D01*
X135702107Y-91237846D01*
X135511185Y-91314983D01*
X135338882Y-91427735D01*
X135191761Y-91571807D01*
X135075425Y-91741711D01*
X134994307Y-91930975D01*
X134951494Y-92132391D01*
X134948619Y-92338287D01*
X134985791Y-92540820D01*
X135061594Y-92732275D01*
X135173140Y-92905361D01*
X135316181Y-93053485D01*
X135485269Y-93171003D01*
X135673962Y-93253442D01*
X135875074Y-93297659D01*
X136080945Y-93301971D01*
X136263861Y-93269719D01*
X136263582Y-93270630D01*
X136241936Y-93338868D01*
X136241482Y-93342917D01*
X136240290Y-93346815D01*
X136233054Y-93418055D01*
X136225076Y-93489179D01*
X136225020Y-93497147D01*
X136225005Y-93497295D01*
X136225018Y-93497433D01*
X136225000Y-93500000D01*
X136225000Y-93936579D01*
X136084095Y-94029429D01*
X135969463Y-94163927D01*
X135896840Y-94325037D01*
X135871976Y-94500000D01*
X135871976Y-95375960D01*
X135628024Y-95132008D01*
X135628024Y-94500000D01*
X135620087Y-94400471D01*
X135567809Y-94231659D01*
X135470571Y-94084095D01*
X135336073Y-93969463D01*
X135174963Y-93896840D01*
X135000000Y-93871976D01*
X134000000Y-93871976D01*
X133900471Y-93879913D01*
X133731659Y-93932191D01*
X133584095Y-94029429D01*
X133469463Y-94163927D01*
X133396840Y-94325037D01*
X133371976Y-94500000D01*
X133371976Y-95700000D01*
X133379913Y-95799529D01*
X133432191Y-95968341D01*
X133529429Y-96115905D01*
X133663927Y-96230537D01*
X133825037Y-96303160D01*
X134000000Y-96328024D01*
X134632008Y-96328024D01*
X135726992Y-97423008D01*
X135782342Y-97468473D01*
X135837151Y-97514463D01*
X135840721Y-97516426D01*
X135843871Y-97519013D01*
X135906950Y-97552835D01*
X135969695Y-97587330D01*
X135973582Y-97588563D01*
X135977172Y-97590488D01*
X136045630Y-97611418D01*
X136113868Y-97633064D01*
X136117917Y-97633518D01*
X136121815Y-97634710D01*
X136193055Y-97641946D01*
X136264179Y-97649924D01*
X136272147Y-97649980D01*
X136272295Y-97649995D01*
X136272433Y-97649982D01*
X136275000Y-97650000D01*
X143621976Y-97650000D01*
X143621976Y-98625000D01*
X143629913Y-98724529D01*
X143682191Y-98893341D01*
X143779429Y-99040905D01*
X143913927Y-99155537D01*
X144075037Y-99228160D01*
X144250000Y-99253024D01*
X145250000Y-99253024D01*
X145349529Y-99245087D01*
X145518341Y-99192809D01*
X145600850Y-99138439D01*
X145609181Y-99150907D01*
X145724093Y-99265820D01*
X145859216Y-99356106D01*
X146009357Y-99418296D01*
X146168745Y-99450000D01*
X146318750Y-99450000D01*
X146525000Y-99243750D01*
X146525000Y-97100000D01*
X146975000Y-97100000D01*
X146975000Y-99243750D01*
X147181250Y-99450000D01*
X147331255Y-99450000D01*
X147490643Y-99418296D01*
X147640784Y-99356106D01*
X147775907Y-99265820D01*
X147890819Y-99150907D01*
X147981105Y-99015784D01*
X148043296Y-98865644D01*
X148075000Y-98706256D01*
X148075000Y-97306250D01*
X147868750Y-97100000D01*
X146975000Y-97100000D01*
X146525000Y-97100000D01*
X146505000Y-97100000D01*
X146505000Y-96650000D01*
X146525000Y-96650000D01*
X146525000Y-94506250D01*
X146975000Y-94506250D01*
X146975000Y-96650000D01*
X147868750Y-96650000D01*
X148075000Y-96443750D01*
X148075000Y-95043744D01*
X148043296Y-94884356D01*
X147981105Y-94734216D01*
X147890819Y-94599093D01*
X147775907Y-94484180D01*
X147640784Y-94393894D01*
X147490643Y-94331704D01*
X147331255Y-94300000D01*
X147181250Y-94300000D01*
X146975000Y-94506250D01*
X146525000Y-94506250D01*
X146318750Y-94300000D01*
X146168745Y-94300000D01*
X146009357Y-94331704D01*
X145859216Y-94393894D01*
X145724093Y-94484180D01*
X145609181Y-94599093D01*
X145602767Y-94608692D01*
X145586073Y-94594463D01*
X145424963Y-94521840D01*
X145250000Y-94496976D01*
X144250000Y-94496976D01*
X144150471Y-94504913D01*
X143981659Y-94557191D01*
X143834095Y-94654429D01*
X143719463Y-94788927D01*
X143646840Y-94950037D01*
X143621976Y-95125000D01*
X143621976Y-96100000D01*
X140740571Y-96100000D01*
X140780826Y-96039754D01*
X140843016Y-95889613D01*
X140870522Y-95751327D01*
X140874720Y-95755525D01*
X140874720Y-95730225D01*
X140870522Y-95751327D01*
X140668470Y-95549275D01*
X139899860Y-95549275D01*
X139899860Y-95648970D01*
X139600140Y-95648970D01*
X139600140Y-95549275D01*
X139505000Y-95549275D01*
X139505000Y-95377834D01*
X140049720Y-95377834D01*
X140149249Y-95369897D01*
X140213870Y-95349885D01*
X140668470Y-95349885D01*
X140692935Y-95325420D01*
X141199580Y-95325420D01*
X141270829Y-95318434D01*
X141342143Y-95312195D01*
X141346058Y-95311057D01*
X141350112Y-95310660D01*
X141418603Y-95289982D01*
X141487390Y-95269997D01*
X141491010Y-95268120D01*
X141494910Y-95266943D01*
X141558091Y-95233349D01*
X141621675Y-95200390D01*
X141624861Y-95197846D01*
X141628458Y-95195934D01*
X141683939Y-95150685D01*
X141739882Y-95106026D01*
X141745555Y-95100432D01*
X141745672Y-95100337D01*
X141745761Y-95100229D01*
X141747588Y-95098428D01*
X142498008Y-94348008D01*
X142543473Y-94292658D01*
X142589463Y-94237849D01*
X142591426Y-94234279D01*
X142594013Y-94231129D01*
X142627846Y-94168032D01*
X142662330Y-94105305D01*
X142663562Y-94101421D01*
X142665488Y-94097829D01*
X142670014Y-94083024D01*
X142850000Y-94083024D01*
X142949529Y-94075087D01*
X143118341Y-94022809D01*
X143265905Y-93925571D01*
X143380537Y-93791073D01*
X143453160Y-93629963D01*
X143478024Y-93455000D01*
X143478024Y-92855000D01*
X143470087Y-92755471D01*
X143432779Y-92635000D01*
X145865000Y-92635000D01*
X145933907Y-92628243D01*
X146002964Y-92622201D01*
X146006751Y-92621101D01*
X146010676Y-92620716D01*
X146077024Y-92600685D01*
X146143527Y-92581364D01*
X146147026Y-92579550D01*
X146150803Y-92578410D01*
X146212000Y-92545871D01*
X146273479Y-92514003D01*
X146276560Y-92511543D01*
X146280044Y-92509691D01*
X146333746Y-92465893D01*
X146387874Y-92422683D01*
X146393361Y-92417272D01*
X146393476Y-92417178D01*
X146393564Y-92417072D01*
X146395330Y-92415330D01*
X146458971Y-92351689D01*
X146486443Y-92346845D01*
X146646427Y-92284792D01*
X146791311Y-92192846D01*
X146915576Y-92074510D01*
X147014490Y-91934290D01*
X147084284Y-91777529D01*
X147122301Y-91610197D01*
X147125038Y-91414202D01*
X147091708Y-91245873D01*
X147026318Y-91087225D01*
X146931358Y-90944298D01*
X146810445Y-90822539D01*
X146668185Y-90726583D01*
X146509997Y-90660087D01*
X146341905Y-90625583D01*
X146170313Y-90624385D01*
X146001756Y-90656539D01*
X145842654Y-90720820D01*
X145699069Y-90814780D01*
X145576468Y-90934839D01*
X145479521Y-91076426D01*
X145454416Y-91135000D01*
X144352055Y-91135000D01*
X144415576Y-91074510D01*
X144514490Y-90934290D01*
X144584284Y-90777529D01*
X144622301Y-90610197D01*
X144625038Y-90414202D01*
X144591708Y-90245873D01*
X144529523Y-90095000D01*
X144905000Y-90095000D01*
X144973907Y-90088243D01*
X145042964Y-90082201D01*
X145046751Y-90081101D01*
X145050676Y-90080716D01*
X145117024Y-90060685D01*
X145183527Y-90041364D01*
X145187026Y-90039550D01*
X145190803Y-90038410D01*
X145252000Y-90005871D01*
X145313479Y-89974003D01*
X145316560Y-89971543D01*
X145320044Y-89969691D01*
X145373746Y-89925893D01*
X145427874Y-89882683D01*
X145433361Y-89877272D01*
X145433476Y-89877178D01*
X145433564Y-89877072D01*
X145435330Y-89875330D01*
X146320330Y-88990330D01*
X146342167Y-88963745D01*
X147825000Y-88963745D01*
X147825000Y-88988750D01*
X148031250Y-89195000D01*
X149325000Y-89195000D01*
X149325000Y-88426250D01*
X149775000Y-88426250D01*
X149775000Y-89195000D01*
X151068750Y-89195000D01*
X151275000Y-88988750D01*
X151275000Y-88963745D01*
X151243296Y-88804357D01*
X151181106Y-88654216D01*
X151090820Y-88519093D01*
X150975907Y-88404181D01*
X150840784Y-88313895D01*
X150690644Y-88251704D01*
X150531256Y-88220000D01*
X149981250Y-88220000D01*
X149775000Y-88426250D01*
X149325000Y-88426250D01*
X149118750Y-88220000D01*
X148568744Y-88220000D01*
X148409356Y-88251704D01*
X148259216Y-88313895D01*
X148124093Y-88404181D01*
X148009180Y-88519093D01*
X147918894Y-88654216D01*
X147856704Y-88804357D01*
X147825000Y-88963745D01*
X146342167Y-88963745D01*
X146364267Y-88936840D01*
X146408835Y-88883725D01*
X146410736Y-88880267D01*
X146413238Y-88877221D01*
X146445972Y-88816174D01*
X146479352Y-88755456D01*
X146480544Y-88751698D01*
X146482408Y-88748222D01*
X146502668Y-88681954D01*
X146523611Y-88615934D01*
X146524050Y-88612016D01*
X146525204Y-88608243D01*
X146532209Y-88539284D01*
X146539927Y-88470472D01*
X146539981Y-88462769D01*
X146539996Y-88462618D01*
X146539983Y-88462478D01*
X146540000Y-88460000D01*
X146540000Y-87311506D01*
X146597656Y-87281364D01*
X146822003Y-87100984D01*
X146940093Y-86960250D01*
X147032327Y-87099101D01*
X147263882Y-87331914D01*
X147536407Y-87515080D01*
X147839429Y-87641559D01*
X147848117Y-87644186D01*
X148105000Y-87491414D01*
X148105000Y-86265000D01*
X148555000Y-86265000D01*
X148555000Y-87491414D01*
X148811883Y-87644186D01*
X148820571Y-87641559D01*
X149123593Y-87515080D01*
X149396118Y-87331914D01*
X149627673Y-87099101D01*
X149809359Y-86825587D01*
X149934194Y-86521884D01*
X149783577Y-86265000D01*
X148555000Y-86265000D01*
X148105000Y-86265000D01*
X148085000Y-86265000D01*
X148085000Y-85815000D01*
X148105000Y-85815000D01*
X148105000Y-85795000D01*
X148555000Y-85795000D01*
X148555000Y-85815000D01*
X149783577Y-85815000D01*
X149934194Y-85558116D01*
X149809359Y-85254413D01*
X149627673Y-84980899D01*
X149396118Y-84748086D01*
X149250784Y-84650406D01*
X149362003Y-84560984D01*
X149539177Y-84349837D01*
X151398787Y-86209447D01*
X151404826Y-86242350D01*
X151467995Y-86401896D01*
X151560950Y-86546134D01*
X151680151Y-86669570D01*
X151821057Y-86767503D01*
X151978302Y-86836201D01*
X152145895Y-86873049D01*
X152317454Y-86876643D01*
X152486443Y-86846845D01*
X152646427Y-86784792D01*
X152791311Y-86692846D01*
X152915576Y-86574510D01*
X153000000Y-86454831D01*
X153000000Y-88689340D01*
X151824340Y-89865000D01*
X151247402Y-89865000D01*
X151275000Y-89726255D01*
X151275000Y-89701250D01*
X151068750Y-89495000D01*
X149775000Y-89495000D01*
X149775000Y-89590000D01*
X149325000Y-89590000D01*
X149325000Y-89495000D01*
X148031250Y-89495000D01*
X147825000Y-89701250D01*
X147825000Y-89726255D01*
X147856704Y-89885643D01*
X147918894Y-90035784D01*
X148009180Y-90170907D01*
X148038313Y-90200040D01*
X148021976Y-90315000D01*
X148021976Y-90915000D01*
X148029913Y-91014529D01*
X148082191Y-91183341D01*
X148122816Y-91244992D01*
X148119463Y-91248927D01*
X148046840Y-91410037D01*
X148021976Y-91585000D01*
X148021976Y-92185000D01*
X148029913Y-92284529D01*
X148082191Y-92453341D01*
X148122816Y-92514992D01*
X148119463Y-92518927D01*
X148046840Y-92680037D01*
X148021976Y-92855000D01*
X148021976Y-93455000D01*
X148029913Y-93554529D01*
X148082191Y-93723341D01*
X148179429Y-93870905D01*
X148313927Y-93985537D01*
X148475037Y-94058160D01*
X148650000Y-94083024D01*
X150450000Y-94083024D01*
X150549529Y-94075087D01*
X150718341Y-94022809D01*
X150865905Y-93925571D01*
X150883438Y-93905000D01*
X152595000Y-93905000D01*
X152663907Y-93898243D01*
X152732964Y-93892201D01*
X152736751Y-93891101D01*
X152740676Y-93890716D01*
X152789246Y-93876052D01*
X152817454Y-93876643D01*
X152986443Y-93846845D01*
X153146427Y-93784792D01*
X153291311Y-93692846D01*
X153415576Y-93574510D01*
X153514490Y-93434290D01*
X153584284Y-93277529D01*
X153606868Y-93178124D01*
X155499750Y-93178124D01*
X155599279Y-93170187D01*
X155768091Y-93117909D01*
X155915655Y-93020671D01*
X156030287Y-92886173D01*
X156102910Y-92725063D01*
X156127774Y-92550100D01*
X156127774Y-92181250D01*
X158675250Y-92181250D01*
X158675250Y-92631356D01*
X158706954Y-92790744D01*
X158769145Y-92940884D01*
X158859431Y-93076007D01*
X158974343Y-93190920D01*
X159109466Y-93281206D01*
X159259607Y-93343396D01*
X159418995Y-93375100D01*
X160068490Y-93375100D01*
X160274740Y-93168850D01*
X160274740Y-91975000D01*
X160724740Y-91975000D01*
X160724740Y-93168850D01*
X160930990Y-93375100D01*
X161580485Y-93375100D01*
X161739873Y-93343396D01*
X161890014Y-93281206D01*
X162025137Y-93190920D01*
X162140049Y-93076007D01*
X162230335Y-92940884D01*
X162292526Y-92790744D01*
X162324230Y-92631356D01*
X162324230Y-92181250D01*
X162117980Y-91975000D01*
X160724740Y-91975000D01*
X160274740Y-91975000D01*
X158881500Y-91975000D01*
X158675250Y-92181250D01*
X156127774Y-92181250D01*
X156127774Y-90949900D01*
X156121295Y-90868644D01*
X158675250Y-90868644D01*
X158675250Y-91318750D01*
X158881500Y-91525000D01*
X160274740Y-91525000D01*
X160274740Y-90331150D01*
X160724740Y-90331150D01*
X160724740Y-91525000D01*
X162117980Y-91525000D01*
X162324230Y-91318750D01*
X162324230Y-90868644D01*
X162292526Y-90709256D01*
X162230335Y-90559116D01*
X162140049Y-90423993D01*
X162025137Y-90309080D01*
X161890014Y-90218794D01*
X161739873Y-90156604D01*
X161580485Y-90124900D01*
X160930990Y-90124900D01*
X160724740Y-90331150D01*
X160274740Y-90331150D01*
X160068490Y-90124900D01*
X159418995Y-90124900D01*
X159259607Y-90156604D01*
X159109466Y-90218794D01*
X158974343Y-90309080D01*
X158859431Y-90423993D01*
X158769145Y-90559116D01*
X158706954Y-90709256D01*
X158675250Y-90868644D01*
X156121295Y-90868644D01*
X156119837Y-90850371D01*
X156067559Y-90681559D01*
X155970321Y-90533995D01*
X155835823Y-90419363D01*
X155674713Y-90346740D01*
X155499750Y-90321876D01*
X153500770Y-90321876D01*
X153487745Y-90322915D01*
X154280330Y-89530330D01*
X154324267Y-89476840D01*
X154368835Y-89423725D01*
X154370736Y-89420267D01*
X154373238Y-89417221D01*
X154405972Y-89356174D01*
X154439352Y-89295456D01*
X154440544Y-89291698D01*
X154442408Y-89288222D01*
X154462668Y-89221954D01*
X154483611Y-89155934D01*
X154484050Y-89152016D01*
X154485204Y-89148243D01*
X154492209Y-89079284D01*
X154499927Y-89010472D01*
X154499981Y-89002769D01*
X154499996Y-89002618D01*
X154499983Y-89002478D01*
X154500000Y-89000000D01*
X154500000Y-87620494D01*
X155488704Y-87620494D01*
X155593893Y-87936375D01*
X155941086Y-88088744D01*
X156311335Y-88170450D01*
X156690408Y-88178354D01*
X157063741Y-88112154D01*
X157416984Y-87974391D01*
X157488107Y-87936375D01*
X157593296Y-87620494D01*
X156541000Y-86568198D01*
X155488704Y-87620494D01*
X154500000Y-87620494D01*
X154500000Y-86310660D01*
X154616935Y-86193725D01*
X154612646Y-86399408D01*
X154678846Y-86772741D01*
X154816609Y-87125984D01*
X154854625Y-87197107D01*
X155170506Y-87302296D01*
X156222802Y-86250000D01*
X156859198Y-86250000D01*
X157911494Y-87302296D01*
X158227375Y-87197107D01*
X158379744Y-86849914D01*
X158461450Y-86479665D01*
X158469354Y-86100592D01*
X158403154Y-85727259D01*
X158265391Y-85374016D01*
X158227375Y-85302893D01*
X157911494Y-85197704D01*
X156859198Y-86250000D01*
X156222802Y-86250000D01*
X156208660Y-86235858D01*
X156526858Y-85917660D01*
X156541000Y-85931802D01*
X157593296Y-84879506D01*
X157488107Y-84563625D01*
X157140914Y-84411256D01*
X156770665Y-84329550D01*
X156487024Y-84323636D01*
X156530330Y-84280330D01*
X156574289Y-84226813D01*
X156618835Y-84173725D01*
X156620734Y-84170270D01*
X156623239Y-84167221D01*
X156655983Y-84106154D01*
X156689352Y-84045456D01*
X156690545Y-84041696D01*
X156692408Y-84038221D01*
X156712660Y-83971980D01*
X156733611Y-83905934D01*
X156734051Y-83902014D01*
X156735204Y-83898242D01*
X156742207Y-83829294D01*
X156749927Y-83760472D01*
X156749981Y-83752768D01*
X156749996Y-83752617D01*
X156749983Y-83752477D01*
X156750000Y-83750000D01*
X156750000Y-83581250D01*
X157175000Y-83581250D01*
X157175000Y-83681256D01*
X157206704Y-83840644D01*
X157268895Y-83990784D01*
X157359181Y-84125907D01*
X157474093Y-84240820D01*
X157609216Y-84331106D01*
X157759357Y-84393296D01*
X157918745Y-84425000D01*
X158318750Y-84425000D01*
X158525000Y-84218750D01*
X158525000Y-83375000D01*
X158975000Y-83375000D01*
X158975000Y-84218750D01*
X159181250Y-84425000D01*
X159581255Y-84425000D01*
X159740643Y-84393296D01*
X159890784Y-84331106D01*
X160025907Y-84240820D01*
X160140819Y-84125907D01*
X160231105Y-83990784D01*
X160293296Y-83840644D01*
X160325000Y-83681256D01*
X160325000Y-83581250D01*
X160118750Y-83375000D01*
X158975000Y-83375000D01*
X158525000Y-83375000D01*
X157381250Y-83375000D01*
X157175000Y-83581250D01*
X156750000Y-83581250D01*
X156750000Y-82618744D01*
X157175000Y-82618744D01*
X157175000Y-82718750D01*
X157381250Y-82925000D01*
X158525000Y-82925000D01*
X158525000Y-82081250D01*
X158975000Y-82081250D01*
X158975000Y-82925000D01*
X160118750Y-82925000D01*
X160325000Y-82718750D01*
X160325000Y-82618744D01*
X160293296Y-82459356D01*
X160231105Y-82309216D01*
X160140819Y-82174093D01*
X160025907Y-82059180D01*
X159890784Y-81968894D01*
X159740643Y-81906704D01*
X159581255Y-81875000D01*
X159181250Y-81875000D01*
X158975000Y-82081250D01*
X158525000Y-82081250D01*
X158318750Y-81875000D01*
X157918745Y-81875000D01*
X157759357Y-81906704D01*
X157609216Y-81968894D01*
X157474093Y-82059180D01*
X157359181Y-82174093D01*
X157268895Y-82309216D01*
X157206704Y-82459356D01*
X157175000Y-82618744D01*
X156750000Y-82618744D01*
X156750000Y-81560660D01*
X157564697Y-80745963D01*
X157663927Y-80830537D01*
X157825037Y-80903160D01*
X158000000Y-80928024D01*
X159500000Y-80928024D01*
X159599529Y-80920087D01*
X159768341Y-80867809D01*
X159915905Y-80770571D01*
X160030537Y-80636073D01*
X160103160Y-80474963D01*
X160128024Y-80300000D01*
X160128024Y-79400000D01*
X160120087Y-79300471D01*
X160067809Y-79131659D01*
X159970571Y-78984095D01*
X159836073Y-78869463D01*
X159674963Y-78796840D01*
X159500000Y-78771976D01*
X158000000Y-78771976D01*
X157900471Y-78779913D01*
X157731659Y-78832191D01*
X157584095Y-78929429D01*
X157469463Y-79063927D01*
X157453202Y-79100000D01*
X157400000Y-79100000D01*
X157331093Y-79106757D01*
X157262036Y-79112799D01*
X157258249Y-79113899D01*
X157254324Y-79114284D01*
X157187976Y-79134315D01*
X157121473Y-79153636D01*
X157117974Y-79155450D01*
X157114197Y-79156590D01*
X157053000Y-79189129D01*
X156991521Y-79220997D01*
X156988440Y-79223457D01*
X156984956Y-79225309D01*
X156931254Y-79269107D01*
X156877126Y-79312317D01*
X156871639Y-79317728D01*
X156871524Y-79317822D01*
X156871436Y-79317928D01*
X156869670Y-79319670D01*
X155469670Y-80719670D01*
X155425733Y-80773160D01*
X155381165Y-80826275D01*
X155379264Y-80829733D01*
X155376762Y-80832779D01*
X155344028Y-80893826D01*
X155310648Y-80954544D01*
X155309456Y-80958302D01*
X155307592Y-80961778D01*
X155287332Y-81028046D01*
X155266389Y-81094066D01*
X155265950Y-81097984D01*
X155264796Y-81101757D01*
X155257791Y-81170716D01*
X155250073Y-81239528D01*
X155250019Y-81247231D01*
X155250004Y-81247382D01*
X155250017Y-81247522D01*
X155250000Y-81250000D01*
X155250000Y-83439340D01*
X153219670Y-85469670D01*
X153175733Y-85523160D01*
X153131165Y-85576275D01*
X153129264Y-85579733D01*
X153126762Y-85582779D01*
X153094028Y-85643826D01*
X153068664Y-85689963D01*
X153026318Y-85587225D01*
X152931358Y-85444298D01*
X152810445Y-85322539D01*
X152668185Y-85226583D01*
X152509997Y-85160087D01*
X152460609Y-85149949D01*
X150280330Y-82969670D01*
X150226840Y-82925733D01*
X150173725Y-82881165D01*
X150170267Y-82879264D01*
X150167221Y-82876762D01*
X150106174Y-82844028D01*
X150045456Y-82810648D01*
X150041698Y-82809456D01*
X150038222Y-82807592D01*
X149971954Y-82787332D01*
X149905934Y-82766389D01*
X149902016Y-82765950D01*
X149898243Y-82764796D01*
X149829284Y-82757791D01*
X149760472Y-82750073D01*
X149752769Y-82750019D01*
X149752618Y-82750004D01*
X149752478Y-82750017D01*
X149750000Y-82750000D01*
X149597581Y-82750000D01*
X149558559Y-82676610D01*
X149376617Y-82453528D01*
X149154810Y-82270033D01*
X148901585Y-82133115D01*
X148709233Y-82073572D01*
X150373850Y-82073572D01*
X150404826Y-82242350D01*
X150467995Y-82401896D01*
X150560950Y-82546134D01*
X150680151Y-82669570D01*
X150821057Y-82767503D01*
X150978302Y-82836201D01*
X151038854Y-82849514D01*
X151869670Y-83680330D01*
X151878993Y-83687988D01*
X151879913Y-83699529D01*
X151932191Y-83868341D01*
X152029429Y-84015905D01*
X152163927Y-84130537D01*
X152325037Y-84203160D01*
X152500000Y-84228024D01*
X154000000Y-84228024D01*
X154099529Y-84220087D01*
X154268341Y-84167809D01*
X154415905Y-84070571D01*
X154530537Y-83936073D01*
X154603160Y-83774963D01*
X154628024Y-83600000D01*
X154628024Y-82700000D01*
X154620087Y-82600471D01*
X154567809Y-82431659D01*
X154470571Y-82284095D01*
X154336073Y-82169463D01*
X154174963Y-82096840D01*
X154000000Y-82071976D01*
X152500000Y-82071976D01*
X152400471Y-82079913D01*
X152392913Y-82082253D01*
X152100392Y-81789732D01*
X152091708Y-81745873D01*
X152026318Y-81587225D01*
X151931358Y-81444298D01*
X151810445Y-81322539D01*
X151668185Y-81226583D01*
X151509997Y-81160087D01*
X151341905Y-81125583D01*
X151170313Y-81124385D01*
X151001756Y-81156539D01*
X150842654Y-81220820D01*
X150699069Y-81314780D01*
X150576468Y-81434839D01*
X150479521Y-81576426D01*
X150411922Y-81734146D01*
X150376245Y-81901993D01*
X150373850Y-82073572D01*
X148709233Y-82073572D01*
X148626590Y-82047990D01*
X148340297Y-82017899D01*
X148053613Y-82043989D01*
X147777455Y-82125267D01*
X147522344Y-82258636D01*
X147297997Y-82439016D01*
X147112958Y-82659537D01*
X147060356Y-82755219D01*
X147018559Y-82676610D01*
X146836617Y-82453528D01*
X146614810Y-82270033D01*
X146361585Y-82133115D01*
X146086590Y-82047990D01*
X145800297Y-82017899D01*
X145513613Y-82043989D01*
X145237455Y-82125267D01*
X144982344Y-82258636D01*
X144757997Y-82439016D01*
X144705095Y-82502062D01*
X144667809Y-82381659D01*
X144570571Y-82234095D01*
X144436073Y-82119463D01*
X144274963Y-82046840D01*
X144100000Y-82021976D01*
X142400000Y-82021976D01*
X142300471Y-82029913D01*
X142131659Y-82082191D01*
X141984095Y-82179429D01*
X141869463Y-82313927D01*
X141796840Y-82475037D01*
X141771976Y-82650000D01*
X141771976Y-84350000D01*
X141779913Y-84449529D01*
X141832191Y-84618341D01*
X141929429Y-84765905D01*
X142063927Y-84880537D01*
X142225037Y-84953160D01*
X142246383Y-84956193D01*
X142217997Y-84979016D01*
X142032958Y-85199537D01*
X141996969Y-85265000D01*
X141960000Y-85265000D01*
X141888751Y-85271986D01*
X141817437Y-85278225D01*
X141813522Y-85279363D01*
X141809468Y-85279760D01*
X141740977Y-85300438D01*
X141672190Y-85320423D01*
X141668570Y-85322300D01*
X141664670Y-85323477D01*
X141601489Y-85357071D01*
X141537905Y-85390030D01*
X141534719Y-85392574D01*
X141531122Y-85394486D01*
X141475641Y-85439735D01*
X141419698Y-85484394D01*
X141414025Y-85489988D01*
X141413908Y-85490083D01*
X141413819Y-85490191D01*
X141411992Y-85491992D01*
X140775000Y-86128984D01*
X140775000Y-84571016D01*
X141048008Y-84298008D01*
X141093473Y-84242658D01*
X141139463Y-84187849D01*
X141141426Y-84184279D01*
X141144013Y-84181129D01*
X141177835Y-84118050D01*
X141212330Y-84055305D01*
X141213563Y-84051418D01*
X141215488Y-84047828D01*
X141236418Y-83979370D01*
X141258064Y-83911132D01*
X141258518Y-83907083D01*
X141259710Y-83903185D01*
X141266951Y-83831901D01*
X141274924Y-83760821D01*
X141274980Y-83752864D01*
X141274996Y-83752705D01*
X141274982Y-83752557D01*
X141275000Y-83750000D01*
X141275000Y-80596468D01*
X141395895Y-80623049D01*
X141567454Y-80626643D01*
X141736443Y-80596845D01*
X141896427Y-80534792D01*
X142041311Y-80442846D01*
X142133750Y-80354817D01*
X142163927Y-80380537D01*
X142325037Y-80453160D01*
X142500000Y-80478024D01*
X144000000Y-80478024D01*
X144099529Y-80470087D01*
X144268341Y-80417809D01*
X144415905Y-80320571D01*
X144530537Y-80186073D01*
X144603160Y-80024963D01*
X144628024Y-79850000D01*
X144628024Y-79831250D01*
X147175000Y-79831250D01*
X147175000Y-79931256D01*
X147206704Y-80090644D01*
X147268895Y-80240784D01*
X147359181Y-80375907D01*
X147474093Y-80490820D01*
X147609216Y-80581106D01*
X147759357Y-80643296D01*
X147918745Y-80675000D01*
X148318750Y-80675000D01*
X148525000Y-80468750D01*
X148525000Y-79625000D01*
X148975000Y-79625000D01*
X148975000Y-80468750D01*
X149181250Y-80675000D01*
X149581255Y-80675000D01*
X149740643Y-80643296D01*
X149890784Y-80581106D01*
X150025907Y-80490820D01*
X150140819Y-80375907D01*
X150231105Y-80240784D01*
X150293296Y-80090644D01*
X150325000Y-79931256D01*
X150325000Y-79831250D01*
X150118750Y-79625000D01*
X148975000Y-79625000D01*
X148525000Y-79625000D01*
X147381250Y-79625000D01*
X147175000Y-79831250D01*
X144628024Y-79831250D01*
X144628024Y-78950000D01*
X144620087Y-78850471D01*
X144567809Y-78681659D01*
X144470571Y-78534095D01*
X144336073Y-78419463D01*
X144174963Y-78346840D01*
X144000000Y-78321976D01*
X142500000Y-78321976D01*
X142400471Y-78329913D01*
X142231659Y-78382191D01*
X142084095Y-78479429D01*
X141969463Y-78613927D01*
X141953202Y-78650000D01*
X141850000Y-78650000D01*
X141781089Y-78656757D01*
X141712037Y-78662799D01*
X141708251Y-78663899D01*
X141704324Y-78664284D01*
X141637997Y-78684309D01*
X141571474Y-78703635D01*
X141567972Y-78705450D01*
X141564197Y-78706590D01*
X141503017Y-78739120D01*
X141441521Y-78770997D01*
X141438440Y-78773456D01*
X141434956Y-78775309D01*
X141381230Y-78819127D01*
X141327127Y-78862317D01*
X141321640Y-78867727D01*
X141321524Y-78867822D01*
X141321435Y-78867930D01*
X141319670Y-78869670D01*
X141290119Y-78899221D01*
X141275000Y-78902105D01*
X141275000Y-78571016D01*
X141571016Y-78275000D01*
X147525247Y-78275000D01*
X147474093Y-78309180D01*
X147359181Y-78424093D01*
X147268895Y-78559216D01*
X147206704Y-78709356D01*
X147175000Y-78868744D01*
X147175000Y-78968750D01*
X147381250Y-79175000D01*
X148525000Y-79175000D01*
X148525000Y-79155000D01*
X148975000Y-79155000D01*
X148975000Y-79175000D01*
X150118750Y-79175000D01*
X150325000Y-78968750D01*
X150325000Y-78868744D01*
X150293296Y-78709356D01*
X150231105Y-78559216D01*
X150140819Y-78424093D01*
X150025907Y-78309180D01*
X149974753Y-78275000D01*
X150000000Y-78275000D01*
X150071249Y-78268014D01*
X150142563Y-78261775D01*
X150146478Y-78260637D01*
X150150532Y-78260240D01*
X150219023Y-78239562D01*
X150287810Y-78219577D01*
X150291430Y-78217700D01*
X150295330Y-78216523D01*
X150358511Y-78182929D01*
X150422095Y-78149970D01*
X150425281Y-78147426D01*
X150428878Y-78145514D01*
X150484359Y-78100265D01*
X150540302Y-78055606D01*
X150545975Y-78050012D01*
X150546092Y-78049917D01*
X150546181Y-78049809D01*
X150548008Y-78048008D01*
X151321015Y-77275000D01*
X152525420Y-77275000D01*
X152525420Y-78771976D01*
X152500000Y-78771976D01*
X152400471Y-78779913D01*
X152231659Y-78832191D01*
X152084095Y-78929429D01*
X151969463Y-79063927D01*
X151896840Y-79225037D01*
X151871976Y-79400000D01*
X151871976Y-80300000D01*
X151879913Y-80399529D01*
X151932191Y-80568341D01*
X152029429Y-80715905D01*
X152163927Y-80830537D01*
X152325037Y-80903160D01*
X152500000Y-80928024D01*
X154000000Y-80928024D01*
X154099529Y-80920087D01*
X154268341Y-80867809D01*
X154415905Y-80770571D01*
X154530537Y-80636073D01*
X154603160Y-80474963D01*
X154628024Y-80300000D01*
X154628024Y-79400000D01*
X154620087Y-79300471D01*
X154567809Y-79131659D01*
X154470571Y-78984095D01*
X154336073Y-78869463D01*
X154174963Y-78796840D01*
X154075420Y-78782694D01*
X154075420Y-77624720D01*
X154480225Y-77624720D01*
X154505525Y-77624720D01*
X154501327Y-77620522D01*
X154480225Y-77624720D01*
X154075420Y-77624720D01*
X154075420Y-77442935D01*
X154099885Y-77418470D01*
X154099885Y-76981527D01*
X154102970Y-76974683D01*
X154127834Y-76799720D01*
X154127834Y-76649860D01*
X154299275Y-76649860D01*
X154299275Y-77418470D01*
X154501327Y-77620522D01*
X154639613Y-77593016D01*
X154789754Y-77530826D01*
X154924877Y-77440540D01*
X155039789Y-77325627D01*
X155130075Y-77190504D01*
X155192266Y-77040364D01*
X155223970Y-76880976D01*
X155223970Y-76856110D01*
X155017720Y-76649860D01*
X154299275Y-76649860D01*
X154127834Y-76649860D01*
X154127834Y-76200280D01*
X154119897Y-76100751D01*
X154099885Y-76036130D01*
X154099885Y-75581530D01*
X154299275Y-75581530D01*
X154299275Y-76350140D01*
X155017720Y-76350140D01*
X155223970Y-76143890D01*
X155223970Y-76119024D01*
X155192266Y-75959636D01*
X155130075Y-75809496D01*
X155039789Y-75674373D01*
X154924877Y-75559460D01*
X154789754Y-75469174D01*
X154639613Y-75406984D01*
X154501327Y-75379478D01*
X154299275Y-75581530D01*
X154099885Y-75581530D01*
X153897833Y-75379478D01*
X153759547Y-75406984D01*
X153609406Y-75469174D01*
X153474283Y-75559460D01*
X153461487Y-75572256D01*
X153101030Y-75572256D01*
X153001501Y-75580193D01*
X152832689Y-75632471D01*
X152692271Y-75725000D01*
X151740644Y-75725000D01*
X151791311Y-75692846D01*
X151915576Y-75574510D01*
X152014490Y-75434290D01*
X152040762Y-75375280D01*
X153893635Y-75375280D01*
X153897833Y-75379478D01*
X153918935Y-75375280D01*
X154480225Y-75375280D01*
X154501327Y-75379478D01*
X154505525Y-75375280D01*
X154480225Y-75375280D01*
X153918935Y-75375280D01*
X153893635Y-75375280D01*
X152040762Y-75375280D01*
X152084284Y-75277529D01*
X152122301Y-75110197D01*
X152125038Y-74914202D01*
X152091708Y-74745873D01*
X152026318Y-74587225D01*
X151931358Y-74444298D01*
X151810445Y-74322539D01*
X151668185Y-74226583D01*
X151509997Y-74160087D01*
X151460609Y-74149949D01*
X151030330Y-73719670D01*
X150976840Y-73675733D01*
X150923725Y-73631165D01*
X150920267Y-73629264D01*
X150917221Y-73626762D01*
X150856174Y-73594028D01*
X150795456Y-73560648D01*
X150791698Y-73559456D01*
X150788222Y-73557592D01*
X150721954Y-73537332D01*
X150655934Y-73516389D01*
X150652016Y-73515950D01*
X150648243Y-73514796D01*
X150579284Y-73507791D01*
X150510472Y-73500073D01*
X150502769Y-73500019D01*
X150502618Y-73500004D01*
X150502478Y-73500017D01*
X150500000Y-73500000D01*
X149500000Y-73500000D01*
X149431049Y-73506761D01*
X149362036Y-73512799D01*
X149358249Y-73513899D01*
X149354324Y-73514284D01*
X149287976Y-73534315D01*
X149221473Y-73553636D01*
X149217974Y-73555450D01*
X149214197Y-73556590D01*
X149153000Y-73589129D01*
X149091521Y-73620997D01*
X149088440Y-73623457D01*
X149084956Y-73625309D01*
X149031254Y-73669107D01*
X148977126Y-73712317D01*
X148971639Y-73717728D01*
X148971524Y-73717822D01*
X148971436Y-73717928D01*
X148969670Y-73719670D01*
X148219670Y-74469670D01*
X148175733Y-74523160D01*
X148131165Y-74576275D01*
X148129264Y-74579733D01*
X148126762Y-74582779D01*
X148094028Y-74643826D01*
X148060648Y-74704544D01*
X148059456Y-74708302D01*
X148057592Y-74711778D01*
X148037332Y-74778046D01*
X148016389Y-74844066D01*
X148015950Y-74847984D01*
X148014796Y-74851757D01*
X148007791Y-74920716D01*
X148000073Y-74989528D01*
X148000019Y-74997231D01*
X148000004Y-74997382D01*
X148000017Y-74997522D01*
X148000000Y-75000000D01*
X148000000Y-75021976D01*
X147900471Y-75029913D01*
X147731659Y-75082191D01*
X147584095Y-75179429D01*
X147469463Y-75313927D01*
X147396840Y-75475037D01*
X147371976Y-75650000D01*
X147371976Y-76550000D01*
X147379913Y-76649529D01*
X147403285Y-76725000D01*
X144603143Y-76725000D01*
X144603160Y-76724963D01*
X144628024Y-76550000D01*
X144628024Y-75650000D01*
X144620087Y-75550471D01*
X144567809Y-75381659D01*
X144470571Y-75234095D01*
X144336073Y-75119463D01*
X144174963Y-75046840D01*
X144000000Y-75021976D01*
X142500000Y-75021976D01*
X142400471Y-75029913D01*
X142231659Y-75082191D01*
X142084095Y-75179429D01*
X141969463Y-75313927D01*
X141964472Y-75325000D01*
X140099580Y-75325000D01*
X140028281Y-75331991D01*
X139957017Y-75338226D01*
X139953107Y-75339362D01*
X139949048Y-75339760D01*
X139880470Y-75360465D01*
X139840194Y-75372166D01*
X139700280Y-75372166D01*
X139600751Y-75380103D01*
X139536130Y-75400115D01*
X139081530Y-75400115D01*
X138879478Y-75602167D01*
X138906984Y-75740453D01*
X138969174Y-75890594D01*
X139059460Y-76025717D01*
X139068654Y-76034910D01*
X138701992Y-76401572D01*
X138656527Y-76456922D01*
X138610537Y-76511731D01*
X138608574Y-76515301D01*
X138605987Y-76518451D01*
X138572165Y-76581530D01*
X138537670Y-76644275D01*
X138536437Y-76648162D01*
X138534512Y-76651752D01*
X138527533Y-76674580D01*
X136442935Y-76674580D01*
X136418470Y-76650115D01*
X135981527Y-76650115D01*
X135974683Y-76647030D01*
X135799720Y-76622166D01*
X135200280Y-76622166D01*
X135100751Y-76630103D01*
X135036130Y-76650115D01*
X134581530Y-76650115D01*
X134379478Y-76852167D01*
X134406984Y-76990453D01*
X134469174Y-77140594D01*
X134559460Y-77275717D01*
X134572256Y-77288513D01*
X134572256Y-77648970D01*
X134580193Y-77748499D01*
X134632471Y-77917311D01*
X134725000Y-78057729D01*
X134725000Y-78678985D01*
X134328984Y-79075000D01*
X134030473Y-79075000D01*
X133970571Y-78984095D01*
X133836073Y-78869463D01*
X133674963Y-78796840D01*
X133500000Y-78771976D01*
X132000000Y-78771976D01*
X131900471Y-78779913D01*
X131731659Y-78832191D01*
X131584095Y-78929429D01*
X131469463Y-79063927D01*
X131396840Y-79225037D01*
X131371976Y-79400000D01*
X131054542Y-79400000D01*
X131538701Y-78519320D01*
X132934085Y-76856365D01*
X134375280Y-76856365D01*
X134379478Y-76852167D01*
X134375280Y-76831065D01*
X134375280Y-76856365D01*
X132934085Y-76856365D01*
X133426293Y-76269775D01*
X134375280Y-76269775D01*
X134379478Y-76248673D01*
X134581530Y-76450725D01*
X135350140Y-76450725D01*
X135350140Y-75732280D01*
X135649860Y-75732280D01*
X135649860Y-76450725D01*
X136418470Y-76450725D01*
X136620522Y-76248673D01*
X136624720Y-76269775D01*
X136624720Y-76244475D01*
X136620522Y-76248673D01*
X136593016Y-76110387D01*
X136530826Y-75960246D01*
X136440540Y-75825123D01*
X136325627Y-75710211D01*
X136190504Y-75619925D01*
X136157768Y-75606365D01*
X138875280Y-75606365D01*
X138879478Y-75602167D01*
X138875280Y-75581065D01*
X138875280Y-75606365D01*
X136157768Y-75606365D01*
X136040364Y-75557734D01*
X135880976Y-75526030D01*
X135856110Y-75526030D01*
X135649860Y-75732280D01*
X135350140Y-75732280D01*
X135143890Y-75526030D01*
X135119024Y-75526030D01*
X134959636Y-75557734D01*
X134809496Y-75619925D01*
X134674373Y-75710211D01*
X134559460Y-75825123D01*
X134469174Y-75960246D01*
X134406984Y-76110387D01*
X134379478Y-76248673D01*
X134375280Y-76244475D01*
X134375280Y-76269775D01*
X133426293Y-76269775D01*
X133699385Y-75944317D01*
X134849282Y-75019775D01*
X138875280Y-75019775D01*
X138879478Y-74998673D01*
X139081530Y-75200725D01*
X139850140Y-75200725D01*
X139850140Y-74482280D01*
X140149860Y-74482280D01*
X140149860Y-75200725D01*
X140918470Y-75200725D01*
X141120522Y-74998673D01*
X141124720Y-75019775D01*
X141124720Y-74994475D01*
X141120522Y-74998673D01*
X141093016Y-74860387D01*
X141030826Y-74710246D01*
X140940540Y-74575123D01*
X140825627Y-74460211D01*
X140690504Y-74369925D01*
X140540364Y-74307734D01*
X140380976Y-74276030D01*
X140356110Y-74276030D01*
X140149860Y-74482280D01*
X139850140Y-74482280D01*
X139643890Y-74276030D01*
X139619024Y-74276030D01*
X139459636Y-74307734D01*
X139309496Y-74369925D01*
X139174373Y-74460211D01*
X139059460Y-74575123D01*
X138969174Y-74710246D01*
X138906984Y-74860387D01*
X138879478Y-74998673D01*
X138875280Y-74994475D01*
X138875280Y-75019775D01*
X134849282Y-75019775D01*
X136319073Y-73838033D01*
X139297983Y-72280697D01*
X142522648Y-71331627D01*
X144802629Y-71124132D01*
X144598935Y-71257426D01*
X144598935Y-71257426D01*
G37*
X144598935Y-71257426D02*
X144287150Y-71562748D01*
X144040607Y-71922815D01*
X143868697Y-72323911D01*
X143777968Y-72750759D01*
X143771875Y-73187101D01*
X143850651Y-73616316D01*
X144011294Y-74022056D01*
X144247687Y-74388866D01*
X144550825Y-74702775D01*
X144909162Y-74951825D01*
X145309048Y-75126531D01*
X145735253Y-75220238D01*
X146171541Y-75229377D01*
X146601296Y-75153600D01*
X147008147Y-74995792D01*
X147376599Y-74761966D01*
X147692616Y-74461027D01*
X147944162Y-74104438D01*
X148121655Y-73705781D01*
X148218336Y-73280241D01*
X148225296Y-72781808D01*
X148140535Y-72353734D01*
X147974242Y-71950277D01*
X147732750Y-71586803D01*
X147425259Y-71277158D01*
X147272912Y-71174399D01*
X149213255Y-71378337D01*
X152424355Y-72372338D01*
X155381230Y-73971114D01*
X157971255Y-76113769D01*
X160095776Y-78718689D01*
X161673871Y-81686654D01*
X162645430Y-84904615D01*
X162973448Y-88250000D01*
X162966733Y-88730907D01*
X162545434Y-92065829D01*
X161484403Y-95255407D01*
X159824053Y-98178152D01*
X157627626Y-100722736D01*
X154978785Y-102792238D01*
X151978422Y-104307831D01*
X150276639Y-104782977D01*
X150380537Y-104661073D01*
X150453160Y-104499963D01*
X150478024Y-104325000D01*
X150478024Y-101187101D01*
X150771875Y-101187101D01*
X150850651Y-101616316D01*
X151011294Y-102022056D01*
X151247687Y-102388866D01*
X151550825Y-102702775D01*
X151909162Y-102951825D01*
X152309048Y-103126531D01*
X152735253Y-103220238D01*
X153171541Y-103229377D01*
X153601296Y-103153600D01*
X154008147Y-102995792D01*
X154376599Y-102761966D01*
X154692616Y-102461027D01*
X154944162Y-102104438D01*
X155121655Y-101705781D01*
X155218336Y-101280241D01*
X155225296Y-100781808D01*
X155140535Y-100353734D01*
X154974242Y-99950277D01*
X154732750Y-99586803D01*
X154425259Y-99277158D01*
X154063480Y-99033135D01*
X153661193Y-98864029D01*
X153233722Y-98776282D01*
X152797349Y-98773235D01*
X152368694Y-98855006D01*
X151964085Y-99018478D01*
X151598935Y-99257426D01*
X151287150Y-99562748D01*
X151040607Y-99922815D01*
X150868697Y-100323911D01*
X150777968Y-100750759D01*
X150771875Y-101187101D01*
X150478024Y-101187101D01*
X150478024Y-100925000D01*
X150470087Y-100825471D01*
X150417809Y-100656659D01*
X150320571Y-100509095D01*
X150186073Y-100394463D01*
X150024963Y-100321840D01*
X149850000Y-100296976D01*
X148350000Y-100296976D01*
X148250471Y-100304913D01*
X148081659Y-100357191D01*
X147934095Y-100454429D01*
X147819463Y-100588927D01*
X147746840Y-100750037D01*
X147721976Y-100925000D01*
X147721976Y-104325000D01*
X147729913Y-104424529D01*
X147782191Y-104593341D01*
X147879429Y-104740905D01*
X148013927Y-104855537D01*
X148175037Y-104928160D01*
X148350000Y-104953024D01*
X149667598Y-104953024D01*
X148740820Y-105211785D01*
X145389299Y-105469671D01*
X142051517Y-105071664D01*
X141686380Y-104953024D01*
X143150000Y-104953024D01*
X143249529Y-104945087D01*
X143418341Y-104892809D01*
X143565905Y-104795571D01*
X143680537Y-104661073D01*
X143753160Y-104499963D01*
X143778024Y-104325000D01*
X143778024Y-100925000D01*
X143770087Y-100825471D01*
X143717809Y-100656659D01*
X143620571Y-100509095D01*
X143486073Y-100394463D01*
X143324963Y-100321840D01*
X143150000Y-100296976D01*
X141650000Y-100296976D01*
X141550471Y-100304913D01*
X141381659Y-100357191D01*
X141234095Y-100454429D01*
X141119463Y-100588927D01*
X141046840Y-100750037D01*
X141021976Y-100925000D01*
X141021976Y-104325000D01*
X141029913Y-104424529D01*
X141082191Y-104593341D01*
X141179429Y-104740905D01*
X141269309Y-104817509D01*
X138854609Y-104032926D01*
X135920345Y-102393021D01*
X134503394Y-101187101D01*
X136271875Y-101187101D01*
X136350651Y-101616316D01*
X136511294Y-102022056D01*
X136747687Y-102388866D01*
X137050825Y-102702775D01*
X137409162Y-102951825D01*
X137809048Y-103126531D01*
X138235253Y-103220238D01*
X138671541Y-103229377D01*
X139101296Y-103153600D01*
X139508147Y-102995792D01*
X139876599Y-102761966D01*
X140192616Y-102461027D01*
X140444162Y-102104438D01*
X140621655Y-101705781D01*
X140718336Y-101280241D01*
X140725296Y-100781808D01*
X140640535Y-100353734D01*
X140474242Y-99950277D01*
X140232750Y-99586803D01*
X139925259Y-99277158D01*
X139563480Y-99033135D01*
X139161193Y-98864029D01*
X138733722Y-98776282D01*
X138297349Y-98773235D01*
X137868694Y-98855006D01*
X137464085Y-99018478D01*
X137098935Y-99257426D01*
X136787150Y-99562748D01*
X136540607Y-99922815D01*
X136368697Y-100323911D01*
X136277968Y-100750759D01*
X136271875Y-101187101D01*
X134503394Y-101187101D01*
X133360488Y-100214412D01*
X131272545Y-97580083D01*
X129736043Y-94590374D01*
X129710129Y-94500000D01*
X130871976Y-94500000D01*
X130871976Y-95700000D01*
X130879913Y-95799529D01*
X130932191Y-95968341D01*
X131029429Y-96115905D01*
X131163927Y-96230537D01*
X131325037Y-96303160D01*
X131500000Y-96328024D01*
X132500000Y-96328024D01*
X132599529Y-96320087D01*
X132768341Y-96267809D01*
X132915905Y-96170571D01*
X133030537Y-96036073D01*
X133103160Y-95874963D01*
X133128024Y-95700000D01*
X133128024Y-94500000D01*
X133120087Y-94400471D01*
X133067809Y-94231659D01*
X132970571Y-94084095D01*
X132836073Y-93969463D01*
X132674963Y-93896840D01*
X132500000Y-93871976D01*
X131500000Y-93871976D01*
X131400471Y-93879913D01*
X131231659Y-93932191D01*
X131084095Y-94029429D01*
X130969463Y-94163927D01*
X130896840Y-94325037D01*
X130871976Y-94500000D01*
X129710129Y-94500000D01*
X129090268Y-92338287D01*
X131948619Y-92338287D01*
X131985791Y-92540820D01*
X132061594Y-92732275D01*
X132173140Y-92905361D01*
X132316181Y-93053485D01*
X132485269Y-93171003D01*
X132673962Y-93253442D01*
X132875074Y-93297659D01*
X133080945Y-93301971D01*
X133283732Y-93266215D01*
X133475712Y-93191750D01*
X133649573Y-93081415D01*
X133798691Y-92939412D01*
X133917388Y-92771149D01*
X134001141Y-92583035D01*
X134046761Y-92382237D01*
X134050046Y-92147042D01*
X134010050Y-91945048D01*
X133931581Y-91754669D01*
X133817629Y-91583158D01*
X133672534Y-91437046D01*
X133501822Y-91321900D01*
X133311996Y-91242104D01*
X133110286Y-91200699D01*
X132904375Y-91199261D01*
X132702107Y-91237846D01*
X132511185Y-91314983D01*
X132338882Y-91427735D01*
X132191761Y-91571807D01*
X132075425Y-91741711D01*
X131994307Y-91930975D01*
X131951494Y-92132391D01*
X131948619Y-92338287D01*
X129090268Y-92338287D01*
X128809508Y-91359162D01*
X128594610Y-88800000D01*
X130871976Y-88800000D01*
X130871976Y-90000000D01*
X130879913Y-90099529D01*
X130932191Y-90268341D01*
X131029429Y-90415905D01*
X131163927Y-90530537D01*
X131325037Y-90603160D01*
X131500000Y-90628024D01*
X132500000Y-90628024D01*
X132599529Y-90620087D01*
X132768341Y-90567809D01*
X132915905Y-90470571D01*
X133030537Y-90336073D01*
X133103160Y-90174963D01*
X133128024Y-90000000D01*
X133128024Y-88800000D01*
X133371976Y-88800000D01*
X133371976Y-90000000D01*
X133379913Y-90099529D01*
X133432191Y-90268341D01*
X133529429Y-90415905D01*
X133663927Y-90530537D01*
X133825037Y-90603160D01*
X134000000Y-90628024D01*
X135000000Y-90628024D01*
X135099529Y-90620087D01*
X135268341Y-90567809D01*
X135415905Y-90470571D01*
X135530537Y-90336073D01*
X135603160Y-90174963D01*
X135628024Y-90000000D01*
X135628024Y-88800000D01*
X135871976Y-88800000D01*
X135871976Y-90000000D01*
X135879913Y-90099529D01*
X135932191Y-90268341D01*
X136029429Y-90415905D01*
X136163927Y-90530537D01*
X136325037Y-90603160D01*
X136500000Y-90628024D01*
X137500000Y-90628024D01*
X137599529Y-90620087D01*
X137768341Y-90567809D01*
X137915905Y-90470571D01*
X138030537Y-90336073D01*
X138103160Y-90174963D01*
X138128024Y-90000000D01*
X138128024Y-88800000D01*
X138120087Y-88700471D01*
X138067809Y-88531659D01*
X137970571Y-88384095D01*
X137836073Y-88269463D01*
X137674963Y-88196840D01*
X137500000Y-88171976D01*
X136500000Y-88171976D01*
X136400471Y-88179913D01*
X136231659Y-88232191D01*
X136084095Y-88329429D01*
X135969463Y-88463927D01*
X135896840Y-88625037D01*
X135871976Y-88800000D01*
X135628024Y-88800000D01*
X135620087Y-88700471D01*
X135567809Y-88531659D01*
X135470571Y-88384095D01*
X135336073Y-88269463D01*
X135174963Y-88196840D01*
X135000000Y-88171976D01*
X134000000Y-88171976D01*
X133900471Y-88179913D01*
X133731659Y-88232191D01*
X133584095Y-88329429D01*
X133469463Y-88463927D01*
X133396840Y-88625037D01*
X133371976Y-88800000D01*
X133128024Y-88800000D01*
X133120087Y-88700471D01*
X133067809Y-88531659D01*
X132970571Y-88384095D01*
X132836073Y-88269463D01*
X132674963Y-88196840D01*
X132500000Y-88171976D01*
X131500000Y-88171976D01*
X131400471Y-88179913D01*
X131231659Y-88232191D01*
X131084095Y-88329429D01*
X130969463Y-88463927D01*
X130896840Y-88625037D01*
X130871976Y-88800000D01*
X128594610Y-88800000D01*
X128528231Y-88009523D01*
X128571867Y-87620494D01*
X134406704Y-87620494D01*
X134511893Y-87936375D01*
X134859086Y-88088744D01*
X135229335Y-88170450D01*
X135608408Y-88178354D01*
X135981741Y-88112154D01*
X136334984Y-87974391D01*
X136406107Y-87936375D01*
X136511296Y-87620494D01*
X135459000Y-86568198D01*
X134406704Y-87620494D01*
X128571867Y-87620494D01*
X128708834Y-86399408D01*
X133530646Y-86399408D01*
X133596846Y-86772741D01*
X133734609Y-87125984D01*
X133772625Y-87197107D01*
X134088506Y-87302296D01*
X135140802Y-86250000D01*
X135777198Y-86250000D01*
X136829494Y-87302296D01*
X137145375Y-87197107D01*
X137297744Y-86849914D01*
X137379450Y-86479665D01*
X137387354Y-86100592D01*
X137321154Y-85727259D01*
X137183391Y-85374016D01*
X137145375Y-85302893D01*
X136829494Y-85197704D01*
X135777198Y-86250000D01*
X135140802Y-86250000D01*
X134088506Y-85197704D01*
X133772625Y-85302893D01*
X133620256Y-85650086D01*
X133538550Y-86020335D01*
X133530646Y-86399408D01*
X128708834Y-86399408D01*
X128879318Y-84879506D01*
X134406704Y-84879506D01*
X135459000Y-85931802D01*
X136511296Y-84879506D01*
X136406107Y-84563625D01*
X136058914Y-84411256D01*
X135688665Y-84329550D01*
X135309592Y-84321646D01*
X134936259Y-84387846D01*
X134583016Y-84525609D01*
X134511893Y-84563625D01*
X134406704Y-84879506D01*
X128879318Y-84879506D01*
X128902926Y-84669044D01*
X129527543Y-82700000D01*
X131371976Y-82700000D01*
X131371976Y-83600000D01*
X131379913Y-83699529D01*
X131432191Y-83868341D01*
X131529429Y-84015905D01*
X131663927Y-84130537D01*
X131825037Y-84203160D01*
X132000000Y-84228024D01*
X133500000Y-84228024D01*
X133599529Y-84220087D01*
X133768341Y-84167809D01*
X133915905Y-84070571D01*
X134030537Y-83936073D01*
X134103160Y-83774963D01*
X134128024Y-83600000D01*
X134128024Y-83581250D01*
X136675000Y-83581250D01*
X136675000Y-83681256D01*
X136706704Y-83840644D01*
X136768895Y-83990784D01*
X136859181Y-84125907D01*
X136974093Y-84240820D01*
X137109216Y-84331106D01*
X137259357Y-84393296D01*
X137418745Y-84425000D01*
X137818750Y-84425000D01*
X138025000Y-84218750D01*
X138025000Y-83375000D01*
X136881250Y-83375000D01*
X136675000Y-83581250D01*
X134128024Y-83581250D01*
X134128024Y-82700000D01*
X134120087Y-82600471D01*
X134067809Y-82431659D01*
X133970571Y-82284095D01*
X133836073Y-82169463D01*
X133674963Y-82096840D01*
X133500000Y-82071976D01*
X132000000Y-82071976D01*
X131900471Y-82079913D01*
X131731659Y-82132191D01*
X131584095Y-82229429D01*
X131469463Y-82363927D01*
X131396840Y-82525037D01*
X131371976Y-82700000D01*
X129527543Y-82700000D01*
X129919320Y-81464962D01*
X131054542Y-79400000D01*
X131371976Y-79400000D01*
X131371976Y-80300000D01*
X131379913Y-80399529D01*
X131432191Y-80568341D01*
X131529429Y-80715905D01*
X131663927Y-80830537D01*
X131825037Y-80903160D01*
X132000000Y-80928024D01*
X133500000Y-80928024D01*
X133599529Y-80920087D01*
X133768341Y-80867809D01*
X133915905Y-80770571D01*
X134030537Y-80636073D01*
X134035528Y-80625000D01*
X134650000Y-80625000D01*
X134721249Y-80618014D01*
X134792563Y-80611775D01*
X134796478Y-80610637D01*
X134800532Y-80610240D01*
X134869023Y-80589562D01*
X134937810Y-80569577D01*
X134941430Y-80567700D01*
X134945330Y-80566523D01*
X135008511Y-80532929D01*
X135072095Y-80499970D01*
X135075281Y-80497426D01*
X135078878Y-80495514D01*
X135134359Y-80450265D01*
X135190302Y-80405606D01*
X135195975Y-80400012D01*
X135196092Y-80399917D01*
X135196181Y-80399809D01*
X135198008Y-80398008D01*
X136048008Y-79548007D01*
X136093434Y-79492704D01*
X136139463Y-79437849D01*
X136141427Y-79434276D01*
X136144013Y-79431128D01*
X136177824Y-79368071D01*
X136212330Y-79305305D01*
X136213563Y-79301418D01*
X136215488Y-79297828D01*
X136236414Y-79229383D01*
X136258064Y-79161132D01*
X136258518Y-79157082D01*
X136259710Y-79153184D01*
X136266950Y-79081910D01*
X136274924Y-79010821D01*
X136274980Y-79002863D01*
X136274996Y-79002704D01*
X136274982Y-79002556D01*
X136275000Y-79000000D01*
X136275000Y-78224580D01*
X139128564Y-78224580D01*
X139725000Y-78821016D01*
X139725000Y-80764905D01*
X139668185Y-80726583D01*
X139510051Y-80660110D01*
X139530537Y-80636073D01*
X139603160Y-80474963D01*
X139628024Y-80300000D01*
X139628024Y-79400000D01*
X139620087Y-79300471D01*
X139567809Y-79131659D01*
X139470571Y-78984095D01*
X139336073Y-78869463D01*
X139174963Y-78796840D01*
X139000000Y-78771976D01*
X137500000Y-78771976D01*
X137400471Y-78779913D01*
X137231659Y-78832191D01*
X137084095Y-78929429D01*
X136969463Y-79063927D01*
X136896840Y-79225037D01*
X136871976Y-79400000D01*
X136871976Y-80300000D01*
X136879913Y-80399529D01*
X136932191Y-80568341D01*
X137029429Y-80715905D01*
X137163927Y-80830537D01*
X137325037Y-80903160D01*
X137500000Y-80928024D01*
X137500000Y-81250000D01*
X137506757Y-81318907D01*
X137512799Y-81387964D01*
X137513899Y-81391751D01*
X137514284Y-81395676D01*
X137534315Y-81462024D01*
X137553636Y-81528527D01*
X137555450Y-81532026D01*
X137556590Y-81535803D01*
X137589129Y-81597000D01*
X137620997Y-81658479D01*
X137623457Y-81661560D01*
X137625309Y-81665044D01*
X137669107Y-81718746D01*
X137712317Y-81772874D01*
X137717728Y-81778361D01*
X137717822Y-81778476D01*
X137717928Y-81778564D01*
X137719670Y-81780330D01*
X137814340Y-81875000D01*
X137418745Y-81875000D01*
X137259357Y-81906704D01*
X137109216Y-81968894D01*
X136974093Y-82059180D01*
X136859181Y-82174093D01*
X136768895Y-82309216D01*
X136706704Y-82459356D01*
X136675000Y-82618744D01*
X136675000Y-82718750D01*
X136881250Y-82925000D01*
X138025000Y-82925000D01*
X138025000Y-82905000D01*
X138475000Y-82905000D01*
X138475000Y-82925000D01*
X138495000Y-82925000D01*
X138495000Y-83375000D01*
X138475000Y-83375000D01*
X138475000Y-84218750D01*
X138681250Y-84425000D01*
X139081255Y-84425000D01*
X139225000Y-84396408D01*
X139225000Y-86678984D01*
X138951992Y-86951992D01*
X138906527Y-87007342D01*
X138860537Y-87062151D01*
X138858574Y-87065721D01*
X138855987Y-87068871D01*
X138822165Y-87131950D01*
X138787670Y-87194695D01*
X138786437Y-87198582D01*
X138784512Y-87202172D01*
X138763582Y-87270630D01*
X138741936Y-87338868D01*
X138741482Y-87342917D01*
X138740290Y-87346815D01*
X138733054Y-87418055D01*
X138725076Y-87489179D01*
X138725020Y-87497147D01*
X138725005Y-87497295D01*
X138725018Y-87497433D01*
X138725000Y-87500000D01*
X138725000Y-90678984D01*
X137047115Y-92356869D01*
X137050046Y-92147042D01*
X137010050Y-91945048D01*
X136931581Y-91754669D01*
X136817629Y-91583158D01*
X136672534Y-91437046D01*
X136501822Y-91321900D01*
X136311996Y-91242104D01*
X136110286Y-91200699D01*
X135904375Y-91199261D01*
X135702107Y-91237846D01*
X135511185Y-91314983D01*
X135338882Y-91427735D01*
X135191761Y-91571807D01*
X135075425Y-91741711D01*
X134994307Y-91930975D01*
X134951494Y-92132391D01*
X134948619Y-92338287D01*
X134985791Y-92540820D01*
X135061594Y-92732275D01*
X135173140Y-92905361D01*
X135316181Y-93053485D01*
X135485269Y-93171003D01*
X135673962Y-93253442D01*
X135875074Y-93297659D01*
X136080945Y-93301971D01*
X136263861Y-93269719D01*
X136263582Y-93270630D01*
X136241936Y-93338868D01*
X136241482Y-93342917D01*
X136240290Y-93346815D01*
X136233054Y-93418055D01*
X136225076Y-93489179D01*
X136225020Y-93497147D01*
X136225005Y-93497295D01*
X136225018Y-93497433D01*
X136225000Y-93500000D01*
X136225000Y-93936579D01*
X136084095Y-94029429D01*
X135969463Y-94163927D01*
X135896840Y-94325037D01*
X135871976Y-94500000D01*
X135871976Y-95375960D01*
X135628024Y-95132008D01*
X135628024Y-94500000D01*
X135620087Y-94400471D01*
X135567809Y-94231659D01*
X135470571Y-94084095D01*
X135336073Y-93969463D01*
X135174963Y-93896840D01*
X135000000Y-93871976D01*
X134000000Y-93871976D01*
X133900471Y-93879913D01*
X133731659Y-93932191D01*
X133584095Y-94029429D01*
X133469463Y-94163927D01*
X133396840Y-94325037D01*
X133371976Y-94500000D01*
X133371976Y-95700000D01*
X133379913Y-95799529D01*
X133432191Y-95968341D01*
X133529429Y-96115905D01*
X133663927Y-96230537D01*
X133825037Y-96303160D01*
X134000000Y-96328024D01*
X134632008Y-96328024D01*
X135726992Y-97423008D01*
X135782342Y-97468473D01*
X135837151Y-97514463D01*
X135840721Y-97516426D01*
X135843871Y-97519013D01*
X135906950Y-97552835D01*
X135969695Y-97587330D01*
X135973582Y-97588563D01*
X135977172Y-97590488D01*
X136045630Y-97611418D01*
X136113868Y-97633064D01*
X136117917Y-97633518D01*
X136121815Y-97634710D01*
X136193055Y-97641946D01*
X136264179Y-97649924D01*
X136272147Y-97649980D01*
X136272295Y-97649995D01*
X136272433Y-97649982D01*
X136275000Y-97650000D01*
X143621976Y-97650000D01*
X143621976Y-98625000D01*
X143629913Y-98724529D01*
X143682191Y-98893341D01*
X143779429Y-99040905D01*
X143913927Y-99155537D01*
X144075037Y-99228160D01*
X144250000Y-99253024D01*
X145250000Y-99253024D01*
X145349529Y-99245087D01*
X145518341Y-99192809D01*
X145600850Y-99138439D01*
X145609181Y-99150907D01*
X145724093Y-99265820D01*
X145859216Y-99356106D01*
X146009357Y-99418296D01*
X146168745Y-99450000D01*
X146318750Y-99450000D01*
X146525000Y-99243750D01*
X146525000Y-97100000D01*
X146975000Y-97100000D01*
X146975000Y-99243750D01*
X147181250Y-99450000D01*
X147331255Y-99450000D01*
X147490643Y-99418296D01*
X147640784Y-99356106D01*
X147775907Y-99265820D01*
X147890819Y-99150907D01*
X147981105Y-99015784D01*
X148043296Y-98865644D01*
X148075000Y-98706256D01*
X148075000Y-97306250D01*
X147868750Y-97100000D01*
X146975000Y-97100000D01*
X146525000Y-97100000D01*
X146505000Y-97100000D01*
X146505000Y-96650000D01*
X146525000Y-96650000D01*
X146525000Y-94506250D01*
X146975000Y-94506250D01*
X146975000Y-96650000D01*
X147868750Y-96650000D01*
X148075000Y-96443750D01*
X148075000Y-95043744D01*
X148043296Y-94884356D01*
X147981105Y-94734216D01*
X147890819Y-94599093D01*
X147775907Y-94484180D01*
X147640784Y-94393894D01*
X147490643Y-94331704D01*
X147331255Y-94300000D01*
X147181250Y-94300000D01*
X146975000Y-94506250D01*
X146525000Y-94506250D01*
X146318750Y-94300000D01*
X146168745Y-94300000D01*
X146009357Y-94331704D01*
X145859216Y-94393894D01*
X145724093Y-94484180D01*
X145609181Y-94599093D01*
X145602767Y-94608692D01*
X145586073Y-94594463D01*
X145424963Y-94521840D01*
X145250000Y-94496976D01*
X144250000Y-94496976D01*
X144150471Y-94504913D01*
X143981659Y-94557191D01*
X143834095Y-94654429D01*
X143719463Y-94788927D01*
X143646840Y-94950037D01*
X143621976Y-95125000D01*
X143621976Y-96100000D01*
X140740571Y-96100000D01*
X140780826Y-96039754D01*
X140843016Y-95889613D01*
X140870522Y-95751327D01*
X140874720Y-95755525D01*
X140874720Y-95730225D01*
X140870522Y-95751327D01*
X140668470Y-95549275D01*
X139899860Y-95549275D01*
X139899860Y-95648970D01*
X139600140Y-95648970D01*
X139600140Y-95549275D01*
X139505000Y-95549275D01*
X139505000Y-95377834D01*
X140049720Y-95377834D01*
X140149249Y-95369897D01*
X140213870Y-95349885D01*
X140668470Y-95349885D01*
X140692935Y-95325420D01*
X141199580Y-95325420D01*
X141270829Y-95318434D01*
X141342143Y-95312195D01*
X141346058Y-95311057D01*
X141350112Y-95310660D01*
X141418603Y-95289982D01*
X141487390Y-95269997D01*
X141491010Y-95268120D01*
X141494910Y-95266943D01*
X141558091Y-95233349D01*
X141621675Y-95200390D01*
X141624861Y-95197846D01*
X141628458Y-95195934D01*
X141683939Y-95150685D01*
X141739882Y-95106026D01*
X141745555Y-95100432D01*
X141745672Y-95100337D01*
X141745761Y-95100229D01*
X141747588Y-95098428D01*
X142498008Y-94348008D01*
X142543473Y-94292658D01*
X142589463Y-94237849D01*
X142591426Y-94234279D01*
X142594013Y-94231129D01*
X142627846Y-94168032D01*
X142662330Y-94105305D01*
X142663562Y-94101421D01*
X142665488Y-94097829D01*
X142670014Y-94083024D01*
X142850000Y-94083024D01*
X142949529Y-94075087D01*
X143118341Y-94022809D01*
X143265905Y-93925571D01*
X143380537Y-93791073D01*
X143453160Y-93629963D01*
X143478024Y-93455000D01*
X143478024Y-92855000D01*
X143470087Y-92755471D01*
X143432779Y-92635000D01*
X145865000Y-92635000D01*
X145933907Y-92628243D01*
X146002964Y-92622201D01*
X146006751Y-92621101D01*
X146010676Y-92620716D01*
X146077024Y-92600685D01*
X146143527Y-92581364D01*
X146147026Y-92579550D01*
X146150803Y-92578410D01*
X146212000Y-92545871D01*
X146273479Y-92514003D01*
X146276560Y-92511543D01*
X146280044Y-92509691D01*
X146333746Y-92465893D01*
X146387874Y-92422683D01*
X146393361Y-92417272D01*
X146393476Y-92417178D01*
X146393564Y-92417072D01*
X146395330Y-92415330D01*
X146458971Y-92351689D01*
X146486443Y-92346845D01*
X146646427Y-92284792D01*
X146791311Y-92192846D01*
X146915576Y-92074510D01*
X147014490Y-91934290D01*
X147084284Y-91777529D01*
X147122301Y-91610197D01*
X147125038Y-91414202D01*
X147091708Y-91245873D01*
X147026318Y-91087225D01*
X146931358Y-90944298D01*
X146810445Y-90822539D01*
X146668185Y-90726583D01*
X146509997Y-90660087D01*
X146341905Y-90625583D01*
X146170313Y-90624385D01*
X146001756Y-90656539D01*
X145842654Y-90720820D01*
X145699069Y-90814780D01*
X145576468Y-90934839D01*
X145479521Y-91076426D01*
X145454416Y-91135000D01*
X144352055Y-91135000D01*
X144415576Y-91074510D01*
X144514490Y-90934290D01*
X144584284Y-90777529D01*
X144622301Y-90610197D01*
X144625038Y-90414202D01*
X144591708Y-90245873D01*
X144529523Y-90095000D01*
X144905000Y-90095000D01*
X144973907Y-90088243D01*
X145042964Y-90082201D01*
X145046751Y-90081101D01*
X145050676Y-90080716D01*
X145117024Y-90060685D01*
X145183527Y-90041364D01*
X145187026Y-90039550D01*
X145190803Y-90038410D01*
X145252000Y-90005871D01*
X145313479Y-89974003D01*
X145316560Y-89971543D01*
X145320044Y-89969691D01*
X145373746Y-89925893D01*
X145427874Y-89882683D01*
X145433361Y-89877272D01*
X145433476Y-89877178D01*
X145433564Y-89877072D01*
X145435330Y-89875330D01*
X146320330Y-88990330D01*
X146342167Y-88963745D01*
X147825000Y-88963745D01*
X147825000Y-88988750D01*
X148031250Y-89195000D01*
X149325000Y-89195000D01*
X149325000Y-88426250D01*
X149775000Y-88426250D01*
X149775000Y-89195000D01*
X151068750Y-89195000D01*
X151275000Y-88988750D01*
X151275000Y-88963745D01*
X151243296Y-88804357D01*
X151181106Y-88654216D01*
X151090820Y-88519093D01*
X150975907Y-88404181D01*
X150840784Y-88313895D01*
X150690644Y-88251704D01*
X150531256Y-88220000D01*
X149981250Y-88220000D01*
X149775000Y-88426250D01*
X149325000Y-88426250D01*
X149118750Y-88220000D01*
X148568744Y-88220000D01*
X148409356Y-88251704D01*
X148259216Y-88313895D01*
X148124093Y-88404181D01*
X148009180Y-88519093D01*
X147918894Y-88654216D01*
X147856704Y-88804357D01*
X147825000Y-88963745D01*
X146342167Y-88963745D01*
X146364267Y-88936840D01*
X146408835Y-88883725D01*
X146410736Y-88880267D01*
X146413238Y-88877221D01*
X146445972Y-88816174D01*
X146479352Y-88755456D01*
X146480544Y-88751698D01*
X146482408Y-88748222D01*
X146502668Y-88681954D01*
X146523611Y-88615934D01*
X146524050Y-88612016D01*
X146525204Y-88608243D01*
X146532209Y-88539284D01*
X146539927Y-88470472D01*
X146539981Y-88462769D01*
X146539996Y-88462618D01*
X146539983Y-88462478D01*
X146540000Y-88460000D01*
X146540000Y-87311506D01*
X146597656Y-87281364D01*
X146822003Y-87100984D01*
X146940093Y-86960250D01*
X147032327Y-87099101D01*
X147263882Y-87331914D01*
X147536407Y-87515080D01*
X147839429Y-87641559D01*
X147848117Y-87644186D01*
X148105000Y-87491414D01*
X148105000Y-86265000D01*
X148555000Y-86265000D01*
X148555000Y-87491414D01*
X148811883Y-87644186D01*
X148820571Y-87641559D01*
X149123593Y-87515080D01*
X149396118Y-87331914D01*
X149627673Y-87099101D01*
X149809359Y-86825587D01*
X149934194Y-86521884D01*
X149783577Y-86265000D01*
X148555000Y-86265000D01*
X148105000Y-86265000D01*
X148085000Y-86265000D01*
X148085000Y-85815000D01*
X148105000Y-85815000D01*
X148105000Y-85795000D01*
X148555000Y-85795000D01*
X148555000Y-85815000D01*
X149783577Y-85815000D01*
X149934194Y-85558116D01*
X149809359Y-85254413D01*
X149627673Y-84980899D01*
X149396118Y-84748086D01*
X149250784Y-84650406D01*
X149362003Y-84560984D01*
X149539177Y-84349837D01*
X151398787Y-86209447D01*
X151404826Y-86242350D01*
X151467995Y-86401896D01*
X151560950Y-86546134D01*
X151680151Y-86669570D01*
X151821057Y-86767503D01*
X151978302Y-86836201D01*
X152145895Y-86873049D01*
X152317454Y-86876643D01*
X152486443Y-86846845D01*
X152646427Y-86784792D01*
X152791311Y-86692846D01*
X152915576Y-86574510D01*
X153000000Y-86454831D01*
X153000000Y-88689340D01*
X151824340Y-89865000D01*
X151247402Y-89865000D01*
X151275000Y-89726255D01*
X151275000Y-89701250D01*
X151068750Y-89495000D01*
X149775000Y-89495000D01*
X149775000Y-89590000D01*
X149325000Y-89590000D01*
X149325000Y-89495000D01*
X148031250Y-89495000D01*
X147825000Y-89701250D01*
X147825000Y-89726255D01*
X147856704Y-89885643D01*
X147918894Y-90035784D01*
X148009180Y-90170907D01*
X148038313Y-90200040D01*
X148021976Y-90315000D01*
X148021976Y-90915000D01*
X148029913Y-91014529D01*
X148082191Y-91183341D01*
X148122816Y-91244992D01*
X148119463Y-91248927D01*
X148046840Y-91410037D01*
X148021976Y-91585000D01*
X148021976Y-92185000D01*
X148029913Y-92284529D01*
X148082191Y-92453341D01*
X148122816Y-92514992D01*
X148119463Y-92518927D01*
X148046840Y-92680037D01*
X148021976Y-92855000D01*
X148021976Y-93455000D01*
X148029913Y-93554529D01*
X148082191Y-93723341D01*
X148179429Y-93870905D01*
X148313927Y-93985537D01*
X148475037Y-94058160D01*
X148650000Y-94083024D01*
X150450000Y-94083024D01*
X150549529Y-94075087D01*
X150718341Y-94022809D01*
X150865905Y-93925571D01*
X150883438Y-93905000D01*
X152595000Y-93905000D01*
X152663907Y-93898243D01*
X152732964Y-93892201D01*
X152736751Y-93891101D01*
X152740676Y-93890716D01*
X152789246Y-93876052D01*
X152817454Y-93876643D01*
X152986443Y-93846845D01*
X153146427Y-93784792D01*
X153291311Y-93692846D01*
X153415576Y-93574510D01*
X153514490Y-93434290D01*
X153584284Y-93277529D01*
X153606868Y-93178124D01*
X155499750Y-93178124D01*
X155599279Y-93170187D01*
X155768091Y-93117909D01*
X155915655Y-93020671D01*
X156030287Y-92886173D01*
X156102910Y-92725063D01*
X156127774Y-92550100D01*
X156127774Y-92181250D01*
X158675250Y-92181250D01*
X158675250Y-92631356D01*
X158706954Y-92790744D01*
X158769145Y-92940884D01*
X158859431Y-93076007D01*
X158974343Y-93190920D01*
X159109466Y-93281206D01*
X159259607Y-93343396D01*
X159418995Y-93375100D01*
X160068490Y-93375100D01*
X160274740Y-93168850D01*
X160274740Y-91975000D01*
X160724740Y-91975000D01*
X160724740Y-93168850D01*
X160930990Y-93375100D01*
X161580485Y-93375100D01*
X161739873Y-93343396D01*
X161890014Y-93281206D01*
X162025137Y-93190920D01*
X162140049Y-93076007D01*
X162230335Y-92940884D01*
X162292526Y-92790744D01*
X162324230Y-92631356D01*
X162324230Y-92181250D01*
X162117980Y-91975000D01*
X160724740Y-91975000D01*
X160274740Y-91975000D01*
X158881500Y-91975000D01*
X158675250Y-92181250D01*
X156127774Y-92181250D01*
X156127774Y-90949900D01*
X156121295Y-90868644D01*
X158675250Y-90868644D01*
X158675250Y-91318750D01*
X158881500Y-91525000D01*
X160274740Y-91525000D01*
X160274740Y-90331150D01*
X160724740Y-90331150D01*
X160724740Y-91525000D01*
X162117980Y-91525000D01*
X162324230Y-91318750D01*
X162324230Y-90868644D01*
X162292526Y-90709256D01*
X162230335Y-90559116D01*
X162140049Y-90423993D01*
X162025137Y-90309080D01*
X161890014Y-90218794D01*
X161739873Y-90156604D01*
X161580485Y-90124900D01*
X160930990Y-90124900D01*
X160724740Y-90331150D01*
X160274740Y-90331150D01*
X160068490Y-90124900D01*
X159418995Y-90124900D01*
X159259607Y-90156604D01*
X159109466Y-90218794D01*
X158974343Y-90309080D01*
X158859431Y-90423993D01*
X158769145Y-90559116D01*
X158706954Y-90709256D01*
X158675250Y-90868644D01*
X156121295Y-90868644D01*
X156119837Y-90850371D01*
X156067559Y-90681559D01*
X155970321Y-90533995D01*
X155835823Y-90419363D01*
X155674713Y-90346740D01*
X155499750Y-90321876D01*
X153500770Y-90321876D01*
X153487745Y-90322915D01*
X154280330Y-89530330D01*
X154324267Y-89476840D01*
X154368835Y-89423725D01*
X154370736Y-89420267D01*
X154373238Y-89417221D01*
X154405972Y-89356174D01*
X154439352Y-89295456D01*
X154440544Y-89291698D01*
X154442408Y-89288222D01*
X154462668Y-89221954D01*
X154483611Y-89155934D01*
X154484050Y-89152016D01*
X154485204Y-89148243D01*
X154492209Y-89079284D01*
X154499927Y-89010472D01*
X154499981Y-89002769D01*
X154499996Y-89002618D01*
X154499983Y-89002478D01*
X154500000Y-89000000D01*
X154500000Y-87620494D01*
X155488704Y-87620494D01*
X155593893Y-87936375D01*
X155941086Y-88088744D01*
X156311335Y-88170450D01*
X156690408Y-88178354D01*
X157063741Y-88112154D01*
X157416984Y-87974391D01*
X157488107Y-87936375D01*
X157593296Y-87620494D01*
X156541000Y-86568198D01*
X155488704Y-87620494D01*
X154500000Y-87620494D01*
X154500000Y-86310660D01*
X154616935Y-86193725D01*
X154612646Y-86399408D01*
X154678846Y-86772741D01*
X154816609Y-87125984D01*
X154854625Y-87197107D01*
X155170506Y-87302296D01*
X156222802Y-86250000D01*
X156859198Y-86250000D01*
X157911494Y-87302296D01*
X158227375Y-87197107D01*
X158379744Y-86849914D01*
X158461450Y-86479665D01*
X158469354Y-86100592D01*
X158403154Y-85727259D01*
X158265391Y-85374016D01*
X158227375Y-85302893D01*
X157911494Y-85197704D01*
X156859198Y-86250000D01*
X156222802Y-86250000D01*
X156208660Y-86235858D01*
X156526858Y-85917660D01*
X156541000Y-85931802D01*
X157593296Y-84879506D01*
X157488107Y-84563625D01*
X157140914Y-84411256D01*
X156770665Y-84329550D01*
X156487024Y-84323636D01*
X156530330Y-84280330D01*
X156574289Y-84226813D01*
X156618835Y-84173725D01*
X156620734Y-84170270D01*
X156623239Y-84167221D01*
X156655983Y-84106154D01*
X156689352Y-84045456D01*
X156690545Y-84041696D01*
X156692408Y-84038221D01*
X156712660Y-83971980D01*
X156733611Y-83905934D01*
X156734051Y-83902014D01*
X156735204Y-83898242D01*
X156742207Y-83829294D01*
X156749927Y-83760472D01*
X156749981Y-83752768D01*
X156749996Y-83752617D01*
X156749983Y-83752477D01*
X156750000Y-83750000D01*
X156750000Y-83581250D01*
X157175000Y-83581250D01*
X157175000Y-83681256D01*
X157206704Y-83840644D01*
X157268895Y-83990784D01*
X157359181Y-84125907D01*
X157474093Y-84240820D01*
X157609216Y-84331106D01*
X157759357Y-84393296D01*
X157918745Y-84425000D01*
X158318750Y-84425000D01*
X158525000Y-84218750D01*
X158525000Y-83375000D01*
X158975000Y-83375000D01*
X158975000Y-84218750D01*
X159181250Y-84425000D01*
X159581255Y-84425000D01*
X159740643Y-84393296D01*
X159890784Y-84331106D01*
X160025907Y-84240820D01*
X160140819Y-84125907D01*
X160231105Y-83990784D01*
X160293296Y-83840644D01*
X160325000Y-83681256D01*
X160325000Y-83581250D01*
X160118750Y-83375000D01*
X158975000Y-83375000D01*
X158525000Y-83375000D01*
X157381250Y-83375000D01*
X157175000Y-83581250D01*
X156750000Y-83581250D01*
X156750000Y-82618744D01*
X157175000Y-82618744D01*
X157175000Y-82718750D01*
X157381250Y-82925000D01*
X158525000Y-82925000D01*
X158525000Y-82081250D01*
X158975000Y-82081250D01*
X158975000Y-82925000D01*
X160118750Y-82925000D01*
X160325000Y-82718750D01*
X160325000Y-82618744D01*
X160293296Y-82459356D01*
X160231105Y-82309216D01*
X160140819Y-82174093D01*
X160025907Y-82059180D01*
X159890784Y-81968894D01*
X159740643Y-81906704D01*
X159581255Y-81875000D01*
X159181250Y-81875000D01*
X158975000Y-82081250D01*
X158525000Y-82081250D01*
X158318750Y-81875000D01*
X157918745Y-81875000D01*
X157759357Y-81906704D01*
X157609216Y-81968894D01*
X157474093Y-82059180D01*
X157359181Y-82174093D01*
X157268895Y-82309216D01*
X157206704Y-82459356D01*
X157175000Y-82618744D01*
X156750000Y-82618744D01*
X156750000Y-81560660D01*
X157564697Y-80745963D01*
X157663927Y-80830537D01*
X157825037Y-80903160D01*
X158000000Y-80928024D01*
X159500000Y-80928024D01*
X159599529Y-80920087D01*
X159768341Y-80867809D01*
X159915905Y-80770571D01*
X160030537Y-80636073D01*
X160103160Y-80474963D01*
X160128024Y-80300000D01*
X160128024Y-79400000D01*
X160120087Y-79300471D01*
X160067809Y-79131659D01*
X159970571Y-78984095D01*
X159836073Y-78869463D01*
X159674963Y-78796840D01*
X159500000Y-78771976D01*
X158000000Y-78771976D01*
X157900471Y-78779913D01*
X157731659Y-78832191D01*
X157584095Y-78929429D01*
X157469463Y-79063927D01*
X157453202Y-79100000D01*
X157400000Y-79100000D01*
X157331093Y-79106757D01*
X157262036Y-79112799D01*
X157258249Y-79113899D01*
X157254324Y-79114284D01*
X157187976Y-79134315D01*
X157121473Y-79153636D01*
X157117974Y-79155450D01*
X157114197Y-79156590D01*
X157053000Y-79189129D01*
X156991521Y-79220997D01*
X156988440Y-79223457D01*
X156984956Y-79225309D01*
X156931254Y-79269107D01*
X156877126Y-79312317D01*
X156871639Y-79317728D01*
X156871524Y-79317822D01*
X156871436Y-79317928D01*
X156869670Y-79319670D01*
X155469670Y-80719670D01*
X155425733Y-80773160D01*
X155381165Y-80826275D01*
X155379264Y-80829733D01*
X155376762Y-80832779D01*
X155344028Y-80893826D01*
X155310648Y-80954544D01*
X155309456Y-80958302D01*
X155307592Y-80961778D01*
X155287332Y-81028046D01*
X155266389Y-81094066D01*
X155265950Y-81097984D01*
X155264796Y-81101757D01*
X155257791Y-81170716D01*
X155250073Y-81239528D01*
X155250019Y-81247231D01*
X155250004Y-81247382D01*
X155250017Y-81247522D01*
X155250000Y-81250000D01*
X155250000Y-83439340D01*
X153219670Y-85469670D01*
X153175733Y-85523160D01*
X153131165Y-85576275D01*
X153129264Y-85579733D01*
X153126762Y-85582779D01*
X153094028Y-85643826D01*
X153068664Y-85689963D01*
X153026318Y-85587225D01*
X152931358Y-85444298D01*
X152810445Y-85322539D01*
X152668185Y-85226583D01*
X152509997Y-85160087D01*
X152460609Y-85149949D01*
X150280330Y-82969670D01*
X150226840Y-82925733D01*
X150173725Y-82881165D01*
X150170267Y-82879264D01*
X150167221Y-82876762D01*
X150106174Y-82844028D01*
X150045456Y-82810648D01*
X150041698Y-82809456D01*
X150038222Y-82807592D01*
X149971954Y-82787332D01*
X149905934Y-82766389D01*
X149902016Y-82765950D01*
X149898243Y-82764796D01*
X149829284Y-82757791D01*
X149760472Y-82750073D01*
X149752769Y-82750019D01*
X149752618Y-82750004D01*
X149752478Y-82750017D01*
X149750000Y-82750000D01*
X149597581Y-82750000D01*
X149558559Y-82676610D01*
X149376617Y-82453528D01*
X149154810Y-82270033D01*
X148901585Y-82133115D01*
X148709233Y-82073572D01*
X150373850Y-82073572D01*
X150404826Y-82242350D01*
X150467995Y-82401896D01*
X150560950Y-82546134D01*
X150680151Y-82669570D01*
X150821057Y-82767503D01*
X150978302Y-82836201D01*
X151038854Y-82849514D01*
X151869670Y-83680330D01*
X151878993Y-83687988D01*
X151879913Y-83699529D01*
X151932191Y-83868341D01*
X152029429Y-84015905D01*
X152163927Y-84130537D01*
X152325037Y-84203160D01*
X152500000Y-84228024D01*
X154000000Y-84228024D01*
X154099529Y-84220087D01*
X154268341Y-84167809D01*
X154415905Y-84070571D01*
X154530537Y-83936073D01*
X154603160Y-83774963D01*
X154628024Y-83600000D01*
X154628024Y-82700000D01*
X154620087Y-82600471D01*
X154567809Y-82431659D01*
X154470571Y-82284095D01*
X154336073Y-82169463D01*
X154174963Y-82096840D01*
X154000000Y-82071976D01*
X152500000Y-82071976D01*
X152400471Y-82079913D01*
X152392913Y-82082253D01*
X152100392Y-81789732D01*
X152091708Y-81745873D01*
X152026318Y-81587225D01*
X151931358Y-81444298D01*
X151810445Y-81322539D01*
X151668185Y-81226583D01*
X151509997Y-81160087D01*
X151341905Y-81125583D01*
X151170313Y-81124385D01*
X151001756Y-81156539D01*
X150842654Y-81220820D01*
X150699069Y-81314780D01*
X150576468Y-81434839D01*
X150479521Y-81576426D01*
X150411922Y-81734146D01*
X150376245Y-81901993D01*
X150373850Y-82073572D01*
X148709233Y-82073572D01*
X148626590Y-82047990D01*
X148340297Y-82017899D01*
X148053613Y-82043989D01*
X147777455Y-82125267D01*
X147522344Y-82258636D01*
X147297997Y-82439016D01*
X147112958Y-82659537D01*
X147060356Y-82755219D01*
X147018559Y-82676610D01*
X146836617Y-82453528D01*
X146614810Y-82270033D01*
X146361585Y-82133115D01*
X146086590Y-82047990D01*
X145800297Y-82017899D01*
X145513613Y-82043989D01*
X145237455Y-82125267D01*
X144982344Y-82258636D01*
X144757997Y-82439016D01*
X144705095Y-82502062D01*
X144667809Y-82381659D01*
X144570571Y-82234095D01*
X144436073Y-82119463D01*
X144274963Y-82046840D01*
X144100000Y-82021976D01*
X142400000Y-82021976D01*
X142300471Y-82029913D01*
X142131659Y-82082191D01*
X141984095Y-82179429D01*
X141869463Y-82313927D01*
X141796840Y-82475037D01*
X141771976Y-82650000D01*
X141771976Y-84350000D01*
X141779913Y-84449529D01*
X141832191Y-84618341D01*
X141929429Y-84765905D01*
X142063927Y-84880537D01*
X142225037Y-84953160D01*
X142246383Y-84956193D01*
X142217997Y-84979016D01*
X142032958Y-85199537D01*
X141996969Y-85265000D01*
X141960000Y-85265000D01*
X141888751Y-85271986D01*
X141817437Y-85278225D01*
X141813522Y-85279363D01*
X141809468Y-85279760D01*
X141740977Y-85300438D01*
X141672190Y-85320423D01*
X141668570Y-85322300D01*
X141664670Y-85323477D01*
X141601489Y-85357071D01*
X141537905Y-85390030D01*
X141534719Y-85392574D01*
X141531122Y-85394486D01*
X141475641Y-85439735D01*
X141419698Y-85484394D01*
X141414025Y-85489988D01*
X141413908Y-85490083D01*
X141413819Y-85490191D01*
X141411992Y-85491992D01*
X140775000Y-86128984D01*
X140775000Y-84571016D01*
X141048008Y-84298008D01*
X141093473Y-84242658D01*
X141139463Y-84187849D01*
X141141426Y-84184279D01*
X141144013Y-84181129D01*
X141177835Y-84118050D01*
X141212330Y-84055305D01*
X141213563Y-84051418D01*
X141215488Y-84047828D01*
X141236418Y-83979370D01*
X141258064Y-83911132D01*
X141258518Y-83907083D01*
X141259710Y-83903185D01*
X141266951Y-83831901D01*
X141274924Y-83760821D01*
X141274980Y-83752864D01*
X141274996Y-83752705D01*
X141274982Y-83752557D01*
X141275000Y-83750000D01*
X141275000Y-80596468D01*
X141395895Y-80623049D01*
X141567454Y-80626643D01*
X141736443Y-80596845D01*
X141896427Y-80534792D01*
X142041311Y-80442846D01*
X142133750Y-80354817D01*
X142163927Y-80380537D01*
X142325037Y-80453160D01*
X142500000Y-80478024D01*
X144000000Y-80478024D01*
X144099529Y-80470087D01*
X144268341Y-80417809D01*
X144415905Y-80320571D01*
X144530537Y-80186073D01*
X144603160Y-80024963D01*
X144628024Y-79850000D01*
X144628024Y-79831250D01*
X147175000Y-79831250D01*
X147175000Y-79931256D01*
X147206704Y-80090644D01*
X147268895Y-80240784D01*
X147359181Y-80375907D01*
X147474093Y-80490820D01*
X147609216Y-80581106D01*
X147759357Y-80643296D01*
X147918745Y-80675000D01*
X148318750Y-80675000D01*
X148525000Y-80468750D01*
X148525000Y-79625000D01*
X148975000Y-79625000D01*
X148975000Y-80468750D01*
X149181250Y-80675000D01*
X149581255Y-80675000D01*
X149740643Y-80643296D01*
X149890784Y-80581106D01*
X150025907Y-80490820D01*
X150140819Y-80375907D01*
X150231105Y-80240784D01*
X150293296Y-80090644D01*
X150325000Y-79931256D01*
X150325000Y-79831250D01*
X150118750Y-79625000D01*
X148975000Y-79625000D01*
X148525000Y-79625000D01*
X147381250Y-79625000D01*
X147175000Y-79831250D01*
X144628024Y-79831250D01*
X144628024Y-78950000D01*
X144620087Y-78850471D01*
X144567809Y-78681659D01*
X144470571Y-78534095D01*
X144336073Y-78419463D01*
X144174963Y-78346840D01*
X144000000Y-78321976D01*
X142500000Y-78321976D01*
X142400471Y-78329913D01*
X142231659Y-78382191D01*
X142084095Y-78479429D01*
X141969463Y-78613927D01*
X141953202Y-78650000D01*
X141850000Y-78650000D01*
X141781089Y-78656757D01*
X141712037Y-78662799D01*
X141708251Y-78663899D01*
X141704324Y-78664284D01*
X141637997Y-78684309D01*
X141571474Y-78703635D01*
X141567972Y-78705450D01*
X141564197Y-78706590D01*
X141503017Y-78739120D01*
X141441521Y-78770997D01*
X141438440Y-78773456D01*
X141434956Y-78775309D01*
X141381230Y-78819127D01*
X141327127Y-78862317D01*
X141321640Y-78867727D01*
X141321524Y-78867822D01*
X141321435Y-78867930D01*
X141319670Y-78869670D01*
X141290119Y-78899221D01*
X141275000Y-78902105D01*
X141275000Y-78571016D01*
X141571016Y-78275000D01*
X147525247Y-78275000D01*
X147474093Y-78309180D01*
X147359181Y-78424093D01*
X147268895Y-78559216D01*
X147206704Y-78709356D01*
X147175000Y-78868744D01*
X147175000Y-78968750D01*
X147381250Y-79175000D01*
X148525000Y-79175000D01*
X148525000Y-79155000D01*
X148975000Y-79155000D01*
X148975000Y-79175000D01*
X150118750Y-79175000D01*
X150325000Y-78968750D01*
X150325000Y-78868744D01*
X150293296Y-78709356D01*
X150231105Y-78559216D01*
X150140819Y-78424093D01*
X150025907Y-78309180D01*
X149974753Y-78275000D01*
X150000000Y-78275000D01*
X150071249Y-78268014D01*
X150142563Y-78261775D01*
X150146478Y-78260637D01*
X150150532Y-78260240D01*
X150219023Y-78239562D01*
X150287810Y-78219577D01*
X150291430Y-78217700D01*
X150295330Y-78216523D01*
X150358511Y-78182929D01*
X150422095Y-78149970D01*
X150425281Y-78147426D01*
X150428878Y-78145514D01*
X150484359Y-78100265D01*
X150540302Y-78055606D01*
X150545975Y-78050012D01*
X150546092Y-78049917D01*
X150546181Y-78049809D01*
X150548008Y-78048008D01*
X151321015Y-77275000D01*
X152525420Y-77275000D01*
X152525420Y-78771976D01*
X152500000Y-78771976D01*
X152400471Y-78779913D01*
X152231659Y-78832191D01*
X152084095Y-78929429D01*
X151969463Y-79063927D01*
X151896840Y-79225037D01*
X151871976Y-79400000D01*
X151871976Y-80300000D01*
X151879913Y-80399529D01*
X151932191Y-80568341D01*
X152029429Y-80715905D01*
X152163927Y-80830537D01*
X152325037Y-80903160D01*
X152500000Y-80928024D01*
X154000000Y-80928024D01*
X154099529Y-80920087D01*
X154268341Y-80867809D01*
X154415905Y-80770571D01*
X154530537Y-80636073D01*
X154603160Y-80474963D01*
X154628024Y-80300000D01*
X154628024Y-79400000D01*
X154620087Y-79300471D01*
X154567809Y-79131659D01*
X154470571Y-78984095D01*
X154336073Y-78869463D01*
X154174963Y-78796840D01*
X154075420Y-78782694D01*
X154075420Y-77624720D01*
X154480225Y-77624720D01*
X154505525Y-77624720D01*
X154501327Y-77620522D01*
X154480225Y-77624720D01*
X154075420Y-77624720D01*
X154075420Y-77442935D01*
X154099885Y-77418470D01*
X154099885Y-76981527D01*
X154102970Y-76974683D01*
X154127834Y-76799720D01*
X154127834Y-76649860D01*
X154299275Y-76649860D01*
X154299275Y-77418470D01*
X154501327Y-77620522D01*
X154639613Y-77593016D01*
X154789754Y-77530826D01*
X154924877Y-77440540D01*
X155039789Y-77325627D01*
X155130075Y-77190504D01*
X155192266Y-77040364D01*
X155223970Y-76880976D01*
X155223970Y-76856110D01*
X155017720Y-76649860D01*
X154299275Y-76649860D01*
X154127834Y-76649860D01*
X154127834Y-76200280D01*
X154119897Y-76100751D01*
X154099885Y-76036130D01*
X154099885Y-75581530D01*
X154299275Y-75581530D01*
X154299275Y-76350140D01*
X155017720Y-76350140D01*
X155223970Y-76143890D01*
X155223970Y-76119024D01*
X155192266Y-75959636D01*
X155130075Y-75809496D01*
X155039789Y-75674373D01*
X154924877Y-75559460D01*
X154789754Y-75469174D01*
X154639613Y-75406984D01*
X154501327Y-75379478D01*
X154299275Y-75581530D01*
X154099885Y-75581530D01*
X153897833Y-75379478D01*
X153759547Y-75406984D01*
X153609406Y-75469174D01*
X153474283Y-75559460D01*
X153461487Y-75572256D01*
X153101030Y-75572256D01*
X153001501Y-75580193D01*
X152832689Y-75632471D01*
X152692271Y-75725000D01*
X151740644Y-75725000D01*
X151791311Y-75692846D01*
X151915576Y-75574510D01*
X152014490Y-75434290D01*
X152040762Y-75375280D01*
X153893635Y-75375280D01*
X153897833Y-75379478D01*
X153918935Y-75375280D01*
X154480225Y-75375280D01*
X154501327Y-75379478D01*
X154505525Y-75375280D01*
X154480225Y-75375280D01*
X153918935Y-75375280D01*
X153893635Y-75375280D01*
X152040762Y-75375280D01*
X152084284Y-75277529D01*
X152122301Y-75110197D01*
X152125038Y-74914202D01*
X152091708Y-74745873D01*
X152026318Y-74587225D01*
X151931358Y-74444298D01*
X151810445Y-74322539D01*
X151668185Y-74226583D01*
X151509997Y-74160087D01*
X151460609Y-74149949D01*
X151030330Y-73719670D01*
X150976840Y-73675733D01*
X150923725Y-73631165D01*
X150920267Y-73629264D01*
X150917221Y-73626762D01*
X150856174Y-73594028D01*
X150795456Y-73560648D01*
X150791698Y-73559456D01*
X150788222Y-73557592D01*
X150721954Y-73537332D01*
X150655934Y-73516389D01*
X150652016Y-73515950D01*
X150648243Y-73514796D01*
X150579284Y-73507791D01*
X150510472Y-73500073D01*
X150502769Y-73500019D01*
X150502618Y-73500004D01*
X150502478Y-73500017D01*
X150500000Y-73500000D01*
X149500000Y-73500000D01*
X149431049Y-73506761D01*
X149362036Y-73512799D01*
X149358249Y-73513899D01*
X149354324Y-73514284D01*
X149287976Y-73534315D01*
X149221473Y-73553636D01*
X149217974Y-73555450D01*
X149214197Y-73556590D01*
X149153000Y-73589129D01*
X149091521Y-73620997D01*
X149088440Y-73623457D01*
X149084956Y-73625309D01*
X149031254Y-73669107D01*
X148977126Y-73712317D01*
X148971639Y-73717728D01*
X148971524Y-73717822D01*
X148971436Y-73717928D01*
X148969670Y-73719670D01*
X148219670Y-74469670D01*
X148175733Y-74523160D01*
X148131165Y-74576275D01*
X148129264Y-74579733D01*
X148126762Y-74582779D01*
X148094028Y-74643826D01*
X148060648Y-74704544D01*
X148059456Y-74708302D01*
X148057592Y-74711778D01*
X148037332Y-74778046D01*
X148016389Y-74844066D01*
X148015950Y-74847984D01*
X148014796Y-74851757D01*
X148007791Y-74920716D01*
X148000073Y-74989528D01*
X148000019Y-74997231D01*
X148000004Y-74997382D01*
X148000017Y-74997522D01*
X148000000Y-75000000D01*
X148000000Y-75021976D01*
X147900471Y-75029913D01*
X147731659Y-75082191D01*
X147584095Y-75179429D01*
X147469463Y-75313927D01*
X147396840Y-75475037D01*
X147371976Y-75650000D01*
X147371976Y-76550000D01*
X147379913Y-76649529D01*
X147403285Y-76725000D01*
X144603143Y-76725000D01*
X144603160Y-76724963D01*
X144628024Y-76550000D01*
X144628024Y-75650000D01*
X144620087Y-75550471D01*
X144567809Y-75381659D01*
X144470571Y-75234095D01*
X144336073Y-75119463D01*
X144174963Y-75046840D01*
X144000000Y-75021976D01*
X142500000Y-75021976D01*
X142400471Y-75029913D01*
X142231659Y-75082191D01*
X142084095Y-75179429D01*
X141969463Y-75313927D01*
X141964472Y-75325000D01*
X140099580Y-75325000D01*
X140028281Y-75331991D01*
X139957017Y-75338226D01*
X139953107Y-75339362D01*
X139949048Y-75339760D01*
X139880470Y-75360465D01*
X139840194Y-75372166D01*
X139700280Y-75372166D01*
X139600751Y-75380103D01*
X139536130Y-75400115D01*
X139081530Y-75400115D01*
X138879478Y-75602167D01*
X138906984Y-75740453D01*
X138969174Y-75890594D01*
X139059460Y-76025717D01*
X139068654Y-76034910D01*
X138701992Y-76401572D01*
X138656527Y-76456922D01*
X138610537Y-76511731D01*
X138608574Y-76515301D01*
X138605987Y-76518451D01*
X138572165Y-76581530D01*
X138537670Y-76644275D01*
X138536437Y-76648162D01*
X138534512Y-76651752D01*
X138527533Y-76674580D01*
X136442935Y-76674580D01*
X136418470Y-76650115D01*
X135981527Y-76650115D01*
X135974683Y-76647030D01*
X135799720Y-76622166D01*
X135200280Y-76622166D01*
X135100751Y-76630103D01*
X135036130Y-76650115D01*
X134581530Y-76650115D01*
X134379478Y-76852167D01*
X134406984Y-76990453D01*
X134469174Y-77140594D01*
X134559460Y-77275717D01*
X134572256Y-77288513D01*
X134572256Y-77648970D01*
X134580193Y-77748499D01*
X134632471Y-77917311D01*
X134725000Y-78057729D01*
X134725000Y-78678985D01*
X134328984Y-79075000D01*
X134030473Y-79075000D01*
X133970571Y-78984095D01*
X133836073Y-78869463D01*
X133674963Y-78796840D01*
X133500000Y-78771976D01*
X132000000Y-78771976D01*
X131900471Y-78779913D01*
X131731659Y-78832191D01*
X131584095Y-78929429D01*
X131469463Y-79063927D01*
X131396840Y-79225037D01*
X131371976Y-79400000D01*
X131054542Y-79400000D01*
X131538701Y-78519320D01*
X132934085Y-76856365D01*
X134375280Y-76856365D01*
X134379478Y-76852167D01*
X134375280Y-76831065D01*
X134375280Y-76856365D01*
X132934085Y-76856365D01*
X133426293Y-76269775D01*
X134375280Y-76269775D01*
X134379478Y-76248673D01*
X134581530Y-76450725D01*
X135350140Y-76450725D01*
X135350140Y-75732280D01*
X135649860Y-75732280D01*
X135649860Y-76450725D01*
X136418470Y-76450725D01*
X136620522Y-76248673D01*
X136624720Y-76269775D01*
X136624720Y-76244475D01*
X136620522Y-76248673D01*
X136593016Y-76110387D01*
X136530826Y-75960246D01*
X136440540Y-75825123D01*
X136325627Y-75710211D01*
X136190504Y-75619925D01*
X136157768Y-75606365D01*
X138875280Y-75606365D01*
X138879478Y-75602167D01*
X138875280Y-75581065D01*
X138875280Y-75606365D01*
X136157768Y-75606365D01*
X136040364Y-75557734D01*
X135880976Y-75526030D01*
X135856110Y-75526030D01*
X135649860Y-75732280D01*
X135350140Y-75732280D01*
X135143890Y-75526030D01*
X135119024Y-75526030D01*
X134959636Y-75557734D01*
X134809496Y-75619925D01*
X134674373Y-75710211D01*
X134559460Y-75825123D01*
X134469174Y-75960246D01*
X134406984Y-76110387D01*
X134379478Y-76248673D01*
X134375280Y-76244475D01*
X134375280Y-76269775D01*
X133426293Y-76269775D01*
X133699385Y-75944317D01*
X134849282Y-75019775D01*
X138875280Y-75019775D01*
X138879478Y-74998673D01*
X139081530Y-75200725D01*
X139850140Y-75200725D01*
X139850140Y-74482280D01*
X140149860Y-74482280D01*
X140149860Y-75200725D01*
X140918470Y-75200725D01*
X141120522Y-74998673D01*
X141124720Y-75019775D01*
X141124720Y-74994475D01*
X141120522Y-74998673D01*
X141093016Y-74860387D01*
X141030826Y-74710246D01*
X140940540Y-74575123D01*
X140825627Y-74460211D01*
X140690504Y-74369925D01*
X140540364Y-74307734D01*
X140380976Y-74276030D01*
X140356110Y-74276030D01*
X140149860Y-74482280D01*
X139850140Y-74482280D01*
X139643890Y-74276030D01*
X139619024Y-74276030D01*
X139459636Y-74307734D01*
X139309496Y-74369925D01*
X139174373Y-74460211D01*
X139059460Y-74575123D01*
X138969174Y-74710246D01*
X138906984Y-74860387D01*
X138879478Y-74998673D01*
X138875280Y-74994475D01*
X138875280Y-75019775D01*
X134849282Y-75019775D01*
X136319073Y-73838033D01*
X139297983Y-72280697D01*
X142522648Y-71331627D01*
X144802629Y-71124132D01*
X144598935Y-71257426D01*
M02*
